<?xml version="1.0" encoding="utf-8"?>
<!-- Generator: Adobe Illustrator 26.0.1, SVG Export Plug-In . SVG Version: 6.00 Build 0)  -->
<svg version="1.1" id="Layer_1" xmlns="http://www.w3.org/2000/svg" xmlns:xlink="http://www.w3.org/1999/xlink" x="0px" y="0px"
	 viewBox="0 0 71.3 71.3" style="enable-background:new 0 0 71.3 71.3;" xml:space="preserve">
<style type="text/css">
	.st0{fill:#DE4B29;}
	.st1{fill:#F1E8CE;}
</style>
<g>
	<g>
		<path class="st0" d="M60,71.2H11.3C5.1,71.2,0,66.1,0,59.9V11.4C0,5.2,5.1,0.1,11.3,0.1H60c6.3,0,11.3,5.1,11.3,11.3v48.4
			C71.3,66.1,66.2,71.2,60,71.2z"/>
	</g>
</g>
<circle class="st0" cx="35.7" cy="35.7" r="35.7"/>
<path class="st1" d="M58.8,26.4h-0.7v-0.9c0-0.9-0.7-1.6-1.6-1.6h-1.9v-8.4c0-1.6-1.2-2.9-2.8-3c0,0-8-0.8-16.1-0.8
	s-16.1,0.8-16.1,0.8c-1.6,0.1-2.8,1.4-2.8,3v8.4h-1.9c-0.9,0-1.6,0.7-1.6,1.6v0.9h-0.7c-0.3,0-0.6,0.3-0.6,0.6v6.1
	c0,0.7,0.5,1.2,1.2,1.2h1.1c0.7,0,1.2-0.5,1.2-1.2V27c0-0.3-0.3-0.6-0.6-0.6h-0.7v-0.9c0-0.3,0.3-0.6,0.6-0.6h1.9v30
	c0,1.1,0.9,2,2,2v1.7c0,0.6,0.5,1,1,1h3.9c0.6,0,1-0.5,1-1v-1.7h21.9v1.7c0,0.6,0.5,1,1,1h3.9c0.6,0,1-0.5,1-1v-1.7c1.1,0,2-0.9,2-2
	v-30h1.9c0.3,0,0.6,0.3,0.6,0.6v0.9h-0.7c-0.3,0-0.6,0.3-0.6,0.6v6.1c0,0.7,0.5,1.2,1.2,1.2h1.1c0.7,0,1.2-0.5,1.2-1.2V27
	C59.3,26.7,59.1,26.4,58.8,26.4z M23.2,15.7c0-0.5,0.4-0.9,0.9-0.9h23.1c0.5,0,0.9,0.4,0.9,0.9V18c0,0.5-0.4,0.9-0.9,0.9H24.1
	c-0.5,0-0.9-0.4-0.9-0.9V15.7z M20,50.6c-0.8,0-1.4-0.6-1.4-1.4c0-0.8,0.6-1.4,1.4-1.4s1.4,0.6,1.4,1.4C21.4,49.9,20.7,50.6,20,50.6
	z M24.8,51.5c-1.1,0-2-0.9-2-2s0.9-2,2-2s2,0.9,2,2S25.9,51.5,24.8,51.5z M42.3,54.4c0,0.2-0.2,0.4-0.4,0.4H29.4
	c-0.2,0-0.4-0.2-0.4-0.4V53c0-0.2,0.2-0.4,0.4-0.4h12.5c0.2,0,0.4,0.2,0.4,0.4C42.3,53,42.3,54.4,42.3,54.4z M46.5,51.5
	c-1.1,0-2-0.9-2-2s0.9-2,2-2s2,0.9,2,2S47.6,51.5,46.5,51.5z M51.4,50.6c-0.8,0-1.4-0.6-1.4-1.4c0-0.8,0.6-1.4,1.4-1.4
	c0.8,0,1.4,0.6,1.4,1.4C52.8,49.9,52.1,50.6,51.4,50.6z M52.8,40.2c0,1.2-0.9,2.3-2.1,2.5c0,0-6.8,1.5-15,1.5s-15-1.5-15-1.5
	c-1.2-0.2-2.1-1.3-2.1-2.5V22.4c0-0.8,0.6-1.4,1.4-1.4h15.7h15.7c0.8,0,1.4,0.6,1.4,1.4C52.8,22.4,52.8,40.2,52.8,40.2z"/>
</svg>
