<?xml version="1.0" encoding="utf-8"?>
<!-- Generator: Adobe Illustrator 26.2.1, SVG Export Plug-In . SVG Version: 6.00 Build 0)  -->
<svg version="1.1" id="Layer_1" xmlns="http://www.w3.org/2000/svg" xmlns:xlink="http://www.w3.org/1999/xlink" x="0px" y="0px"
	 viewBox="0 0 300 300" style="enable-background:new 0 0 300 300;" xml:space="preserve">
<style type="text/css">
	.st0{fill:#FFFFFF;}
</style>
<path class="st0" d="M150,29C83.2,29,29,83.2,29,150s54.2,121,121,121c66.8,0,121-54.2,121-121S216.8,29,150,29z M116.9,78.7
	c3.2-3.2,8.3-3.2,11.5,0c3.2,3.2,3.2,8.3,0,11.5c-3.2,3.2-8.3,3.2-11.5,0C113.7,87.1,113.7,81.9,116.9,78.7z M104.6,97.5
	c6.5,0,11.8,5.3,11.8,11.8c0,6.5-5.3,11.8-11.8,11.8c-6.5,0-11.8-5.3-11.8-11.8C92.7,102.8,98,97.5,104.6,97.5z M83.4,148.3
	c0-9.1,7.4-16.4,16.4-16.4s16.4,7.4,16.4,16.4c0,9.1-7.4,16.4-16.4,16.4S83.4,157.4,83.4,148.3z M210.6,169.6
	c-1.6,0.4-2.8,1.6-3.2,3.1c0,0-2.7,12.9-5,21.5c-2.5,9.5-8.4,12.6-18.7,12.6c-11.3,0-12.4-2.1-19.5-2.1c-2.6,0-4.6,2.1-4.6,4.6
	c0,0,0,0,0,0c0,13,5.1,19.5,19.3,19.5v3.4c-13.1,0-44.4,0-57.5,0v-3.4c14.2,0,19.3-6.6,19.3-19.5c0,0,0,0,0,0v0
	c0-2.5-2.1-4.6-4.6-4.6c-4.8,0-9.8,4.4-21.1,4.4c-9.8,0-17.8-8-17.8-17.8c0-9.8,8-17.8,17.8-17.8c4.8,0,9.2,1.9,12.4,5
	c1.6,1.4,3.7,2.3,5.9,2.3c4.9,0,8.8-3.9,8.8-8.8c0-3.6-2.2-6.7-5.3-8.1c-6.2-2.5-10.5-8.6-10.5-15.7c0-9.4,7.6-16.9,16.9-16.9
	c2.1,0,4,0.4,5.9,1.1c0.8,0.3,1.6,0.4,2.4,0.4c4.1,0,7.4-3.3,7.4-7.4c0-4.1-3.3-7.4-7.4-7.4c-1.6,0-3.1,0.5-4.3,1.4
	c-2.1,1.6-4.8,2.6-7.6,2.6c-7,0-12.6-5.6-12.6-12.6c0-7,5.6-12.6,12.6-12.6c2.7,0,5.2,0.9,7.3,2.3c1.2,0.9,2.8,1.4,4.4,1.4
	c4.2,0,7.5-3.4,7.5-7.5c0-4.2-3.4-7.5-7.5-7.5c-0.3,0-0.6,0-0.9,0.1c-0.4,0.1-0.8,0.1-1.2,0.1c-4.2,0-7.5-3.4-7.5-7.5
	c0-4.2,3.4-7.5,7.5-7.5c37.6,0,59.7,32.7,56.1,59.5c-0.3,1.9-0.8,3.8-0.8,5.6c0,1.4,0.4,2.7,1,3.8l10.5,19.1c0.6,1.1,1,2.4,1,3.7
	C216.6,165.8,214,168.8,210.6,169.6z"/>
</svg>
