<?xml version="1.0" encoding="utf-8"?>
<!-- Generator: Adobe Illustrator 26.2.1, SVG Export Plug-In . SVG Version: 6.00 Build 0)  -->
<svg version="1.1" id="Layer_1" xmlns="http://www.w3.org/2000/svg" xmlns:xlink="http://www.w3.org/1999/xlink" x="0px" y="0px"
	 viewBox="0 0 300 300" style="enable-background:new 0 0 300 300;" xml:space="preserve">
<style type="text/css">
	.st0{fill:#FFFFFF;}
</style>
<g>
	<g>
		<path class="st0" d="M115.2,38.8c-3.3-3.3-3.3-8.7,0-12.1s8.7-3.3,12.1,0c3.3,3.3,3.3,8.7,0,12.1
			C123.9,42.1,118.5,42.1,115.2,38.8z M102.3,71.2c6.9,0,12.4-5.6,12.4-12.4c0-6.9-5.6-12.4-12.4-12.4s-12.4,5.6-12.4,12.4
			C89.8,65.7,95.4,71.2,102.3,71.2z M114.6,99.8c0-9.5-7.7-17.3-17.3-17.3c-9.5,0-17.3,7.7-17.3,17.3c0,9.5,7.7,17.3,17.3,17.3
			C106.9,117.1,114.6,109.3,114.6,99.8z M140,163.9L140,163.9C140,163.9,140,163.9,140,163.9C140,163.9,140,163.9,140,163.9z
			 M219,110.4l-11.1-20.1c-0.7-1.2-1.1-2.5-1.1-4c0-1.8,0.6-3.8,0.9-5.8c3.8-28.1-19.5-62.5-59-62.5c-4.4,0-7.9,3.5-7.9,7.9
			s3.5,7.9,7.9,7.9c0.4,0,0.8,0,1.3-0.1c0.3,0,0.7-0.1,1-0.1c4.4,0,7.9,3.5,7.9,7.9c0,4.4-3.5,7.9-7.9,7.9c-1.7,0-3.3-0.6-4.6-1.5
			c-2.2-1.5-4.8-2.4-7.6-2.4c-7.3,0-13.2,5.9-13.2,13.2s5.9,13.2,13.2,13.2c3,0,5.8-1,8-2.7c1.3-0.9,2.9-1.5,4.6-1.5
			c4.3,0,7.8,3.5,7.8,7.8c0,4.3-3.5,7.8-7.8,7.8c-0.9,0-1.8-0.1-2.5-0.4c-1.9-0.7-4-1.1-6.2-1.1c-9.8,0-17.8,8-17.8,17.8
			c0,7.5,4.6,13.8,11.1,16.5c3.3,1.4,5.6,4.7,5.6,8.5c0,5.1-4.1,9.2-9.2,9.2c-2.4,0-4.6-0.9-6.2-2.4c-3.4-3.3-8-5.3-13-5.3
			c-10.3,0-18.7,8.4-18.7,18.7s8.4,18.7,18.7,18.7c11.9,0,17.2-4.6,22.2-4.6c2.7,0,4.8,2.2,4.9,4.8c0,0,0,0,0,0c0,0,0,0,0,0
			c0,13.6-5.3,20.5-20.2,20.5v3.6c13.8,0,46.7,0,60.5,0v-3.6c-14.9,0-20.2-6.9-20.2-20.5c0,0,0,0,0,0c0-2.7,2.2-4.8,4.9-4.8
			c7.5,0,8.6,2.2,20.5,2.2c10.8,0,17-3.2,19.7-13.2c2.4-9,5.2-22.6,5.2-22.6c0.4-1.6,1.7-2.9,3.3-3.3c3.6-0.8,6.3-4,6.3-7.8
			C220,112.9,219.6,111.6,219,110.4z M84.5,205.7l1,8.7H71.3c-1.2,0-2.1,0.9-2.1,2.1v6.5h14.6v8.3H69.2v16.5H58.9V214
			c0-4.6,3.7-8.3,8.3-8.3H84.5z M126.2,240.2H111l-2.6,7.7h-12l15.4-39.5c0.6-1.6,2.2-2.7,3.9-2.7h6c1.7,0,3.3,1.1,3.9,2.7
			l15.2,39.5h-12L126.2,240.2z M123.6,232.4l-2.7-8c-0.8-2.5-1.7-5.7-2.3-9h-0.2c-0.5,3.3-1.4,6.5-2.3,9l-2.7,8H123.6z M240.1,205.7
			l1,8.7h-14.9c-1.2,0-2.1,0.9-2.1,2.1v5.8h15.2v8.3H224v6.5c0,1.2,0.9,2.1,2.1,2.1h14.9l-1,8.7h-18c-4.6,0-8.3-3.7-8.3-8.3V214
			c0-4.6,3.7-8.3,8.3-8.3H240.1z M58.3,271.6c0-6.3,4.8-10.4,10.6-10.4c3.6,0,7,1.6,8.8,4.8l-4.6,2.7c-0.4,0.2-1,0.2-1.3-0.2
			c-0.7-0.8-1.6-1.2-2.6-1.2c-2,0-3.7,1.6-3.7,4.3c0,2.6,1.7,4.3,3.8,4.3c0.9,0,1.8-0.3,2.5-1.2c0.3-0.4,0.9-0.4,1.3-0.2l4.6,2.7
			c-1.8,3.2-5.2,4.8-8.8,4.8C63,282,58.3,277.8,58.3,271.6z M222.4,271.6c0-6.3,4.8-10.4,10.6-10.4c3.6,0,7,1.6,8.8,4.8l-4.6,2.7
			c-0.4,0.2-1,0.2-1.3-0.2c-0.7-0.8-1.6-1.2-2.6-1.2c-2,0-3.7,1.6-3.7,4.3c0,2.6,1.7,4.3,3.8,4.3c0.9,0,1.8-0.3,2.5-1.2
			c0.3-0.4,0.9-0.4,1.3-0.2l4.6,2.7c-1.8,3.2-5.2,4.8-8.8,4.8C227,282,222.4,277.8,222.4,271.6z M103.5,261.8v13
			c0,0.5,0.4,0.8,0.8,0.8h7.1l-0.7,5.8h-9.5c-2.3,0-4.2-1.9-4.2-4.2v-15.5H103.5z M137,261.8v19.7h-6.5v-19.7H137z M157.2,261.8h6.9
			l3.5,5.5c0.7,1.1,1.4,2.1,2.6,4.3h0.1c-0.4-2.2-0.5-3.3-0.5-4.9v-4.9h6.5v19.7h-6.4l-3.9-5.7c-0.7-1.1-1.4-2.1-2.7-4.3h-0.1
			c0.4,2.2,0.6,3.3,0.6,4.9v5.1h-6.4V261.8z M202.8,261.8v19.7h-6.5v-19.7H202.8z M153.8,226.8c0-13.2,9.8-22.3,22.3-22.3
			c8.1,0,15,3.5,18.9,10.7l-6.8,4.1c-0.9,0.6-2.1,0.3-2.7-0.5c-2.2-3-5.4-4.5-9.1-4.5c-6.4,0-11.5,5.1-11.5,12.6
			c0,7.4,5.1,12.5,11.7,12.5c3.8,0,6.7-1.2,9-4.5c0.6-0.9,1.9-1.2,2.8-0.6l6.7,4.1c-4.1,7.1-10.9,10.6-19.1,10.6
			C163.5,249,153.8,239.9,153.8,226.8z"/>
	</g>
</g>
</svg>
