<?xml version="1.0" encoding="utf-8"?>
<!-- Generator: Adobe Illustrator 26.2.1, SVG Export Plug-In . SVG Version: 6.00 Build 0)  -->
<svg version="1.1" id="Layer_1" xmlns="http://www.w3.org/2000/svg" xmlns:xlink="http://www.w3.org/1999/xlink" x="0px" y="0px"
	 viewBox="0 0 300 300" style="enable-background:new 0 0 300 300;" xml:space="preserve">
<style type="text/css">
	.st0{fill:#FFFFFF;}
</style>
<path class="st0" d="M112.4,262.2v13.1c0,0.5,0.4,0.8,0.8,0.8h7.1l-0.7,5.9h-9.5c-2.3,0-4.2-1.9-4.2-4.2v-15.6H112.4z M151.4,279.5
	H146l-0.6,2.5h-7.7l6.6-18.4c0.3-0.8,1.1-1.4,2-1.4h5c0.9,0,1.7,0.6,2,1.4l6.5,18.4H152L151.4,279.5z M150.1,274.7l-0.5-2.1
	c-0.3-1.1-0.7-2.9-0.9-4.8h-0.1c-0.2,1.9-0.6,3.8-0.9,4.8l-0.5,2.1H150.1z M178.2,264.3c0-1.2,0.9-2.1,2.1-2.1h5.4
	c5.1,0,7.4,2,7.4,5.3c0,2-1.3,3.6-3.3,4.2v0.1c2.7,0.7,4.2,2.3,4.2,4.7c0,3.6-2.5,5.6-8,5.6h-5.8c-1.2,0-2.1-0.9-2.1-2.1V264.3z
	 M185.4,269.7c1.2,0,1.7-0.5,1.7-1.3c0-0.9-0.5-1.4-1.7-1.4h-0.8v2.7H185.4z M185.7,277.1c1.4,0,2.1-0.6,2.1-1.6
	c0-0.9-0.7-1.5-2.1-1.5h-1.1v3.1H185.7z M115.1,38.8c-3.3-3.3-3.3-8.7,0-12.1s8.7-3.3,12.1,0c3.3,3.3,3.3,8.7,0,12.1
	C123.8,42.1,118.4,42.1,115.1,38.8z M102.2,71.4c6.9,0,12.5-5.6,12.5-12.5s-5.6-12.5-12.5-12.5S89.7,52,89.7,58.9
	S95.3,71.4,102.2,71.4z M114.5,100c0-9.6-7.8-17.3-17.3-17.3c-9.6,0-17.3,7.8-17.3,17.3c0,9.6,7.8,17.3,17.3,17.3
	C106.8,117.3,114.5,109.5,114.5,100z M140,164.2L140,164.2C140,164.2,140,164.2,140,164.2C140,164.2,140,164.2,140,164.2z
	 M219.1,110.6L208,90.5c-0.7-1.2-1.1-2.5-1.1-4c0-1.8,0.6-3.8,0.9-5.8c3.8-28.1-19.5-62.6-59.1-62.6c-4.4,0-7.9,3.5-7.9,7.9
	s3.5,7.9,7.9,7.9c0.4,0,0.8,0,1.3-0.1c0.3,0,0.7-0.1,1-0.1c4.4,0,7.9,3.5,7.9,7.9c0,4.4-3.5,7.9-7.9,7.9c-1.7,0-3.3-0.6-4.6-1.5
	c-2.2-1.5-4.8-2.4-7.7-2.4c-7.3,0-13.3,5.9-13.3,13.3s5.9,13.3,13.3,13.3c3,0,5.8-1,8-2.7c1.3-0.9,2.9-1.5,4.6-1.5
	c4.3,0,7.8,3.5,7.8,7.8c0,4.3-3.5,7.8-7.8,7.8c-0.9,0-1.8-0.1-2.6-0.4c-1.9-0.7-4-1.1-6.2-1.1c-9.9,0-17.8,8-17.8,17.8
	c0,7.5,4.6,13.9,11.1,16.5c3.3,1.4,5.6,4.7,5.6,8.5c0,5.1-4.1,9.3-9.3,9.3c-2.4,0-4.6-0.9-6.3-2.4c-3.4-3.3-8-5.3-13-5.3
	c-10.3,0-18.7,8.4-18.7,18.7s8.4,18.7,18.7,18.7c11.9,0,17.2-4.6,22.2-4.6c2.7,0,4.9,2.2,4.9,4.9c0,0,0,0,0,0c0,0,0,0,0,0
	c0,13.7-5.3,20.6-20.3,20.6v3.6c13.8,0,46.8,0,60.6,0v-3.6c-14.9,0-20.3-6.9-20.3-20.6c0,0,0,0,0,0c0-2.7,2.2-4.9,4.9-4.9
	c7.5,0,8.7,2.2,20.6,2.2c10.9,0,17.1-3.2,19.7-13.3c2.4-9,5.3-22.6,5.3-22.6c0.4-1.6,1.7-2.9,3.3-3.3c3.6-0.8,6.4-4,6.4-7.9
	C220.1,113.1,219.8,111.8,219.1,110.6z M84.4,206.1l1,8.7H71.1c-1.2,0-2.1,0.9-2.1,2.1v6.5h14.6v8.4H69v16.6H58.8v-33.9
	c0-4.6,3.7-8.3,8.3-8.3H84.4z M126.1,240.6h-15.3l-2.6,7.7h-12l15.4-39.6c0.6-1.6,2.2-2.7,3.9-2.7h6c1.7,0,3.3,1.1,3.9,2.7
	l15.2,39.6h-12L126.1,240.6z M123.6,232.9l-2.7-8.1c-0.8-2.5-1.7-5.7-2.3-9.1h-0.2c-0.5,3.3-1.4,6.6-2.3,9.1l-2.7,8.1H123.6z
	 M240.3,206.1l1,8.7h-15c-1.2,0-2.1,0.9-2.1,2.1v5.8h15.3v8.4h-15.3v6.5c0,1.2,0.9,2.1,2.1,2.1h15l-1,8.7h-18
	c-4.6,0-8.3-3.7-8.3-8.3v-25.5c0-4.6,3.7-8.3,8.3-8.3H240.3z M153.8,227.2c0-13.2,9.8-22.3,22.4-22.3c8.1,0,15,3.5,19,10.7l-6.8,4.1
	c-0.9,0.6-2.1,0.3-2.7-0.5c-2.2-3.1-5.4-4.5-9.1-4.5c-6.4,0-11.5,5.1-11.5,12.6c0,7.4,5.1,12.5,11.7,12.5c3.8,0,6.7-1.2,9-4.5
	c0.6-0.9,1.9-1.2,2.8-0.6l6.8,4.2c-4.1,7.2-10.9,10.6-19.1,10.6C163.5,249.5,153.8,240.3,153.8,227.2z"/>
</svg>
