<?xml version="1.0" encoding="utf-8"?>
<!-- Generator: Adobe Illustrator 24.1.0, SVG Export Plug-In . SVG Version: 6.00 Build 0)  -->
<svg version="1.1" id="Layer_1" xmlns="http://www.w3.org/2000/svg" xmlns:xlink="http://www.w3.org/1999/xlink" x="0px" y="0px"
	 viewBox="0 0 300 300" style="enable-background:new 0 0 300 300;" xml:space="preserve">
<style type="text/css">
	.st0{fill:#5C9CD4;}
</style>
<path class="st0" d="M219.1,167.5l-4,34.3c0,2.2-1.8,4-4,4c0,0,0-1.8,0-4v-34.3c0-2.2,1.8-4,4-4
	C217.2,163.5,219.1,165.4,219.1,167.5z M225.3,163.5c-2.2,0-4,1.8-4,4v34.3c0,2.2,0,4,0,4c2.2,0,4-1.8,4-4l4-34.3
	C229.2,165.4,227.4,163.5,225.3,163.5z M233.6,163.7c-1.3,1.1-2.1,2.5-2.1,4v34.2c0,1.5,0.8,2.7,2,3.4l32.6,25.7v-96.6
	C266,134.4,234.7,162.5,233.6,163.7z M81.1,175.6c-26.7,0-48.4-21.7-48.4-48.4s21.7-48.4,48.4-48.4c14.8,0,28,6.7,36.9,17.2
	c6.7-18.8,24.6-32.3,45.6-32.3c26.7,0,48.4,21.7,48.4,48.4s-21.7,48.4-48.4,48.4c-14.8,0-28-6.7-36.9-17.2
	C120.2,162,102.3,175.6,81.1,175.6z M147.7,112c0,8.9,7.2,16.1,16.1,16.1c6.1,0,11.3-3.4,14.1-8.3c-2.2,2.9-5.8,4.9-9.8,4.9
	c-6.8,0-12.4-5.5-12.4-12.4c0-6.8,5.5-12.4,12.4-12.4c4.8,0,8.9,2.7,11,6.7c-2.2-6.3-8.2-10.9-15.3-10.9
	C154.9,95.7,147.7,103,147.7,112z M95.3,134.9c-2.2,2.9-5.8,4.9-9.8,4.9c-6.8,0-12.4-5.5-12.4-12.4c0-6.9,5.5-12.4,12.4-12.4
	c4.8,0,8.9,2.7,11,6.7c-2.2-6.3-8.2-10.9-15.3-10.9c-8.9,0-16.1,7.2-16.1,16.1S72.3,143,81.2,143C87.2,143.2,92.6,139.8,95.3,134.9z
	 M168.1,164c-13.4,0-26.3-5.3-35.8-14.5c-7.1,14.9-20.9,25.6-37,28.7v27.1c0,9.5,7.7,17,17,17h76.9c9.5,0,17-7.7,17-17v-45.5
	c0-3.6-1.2-6.9-3-9.7C194.1,158.8,181.7,164,168.1,164z"/>
</svg>
