<?xml version="1.0" encoding="utf-8"?>
<!-- Generator: Adobe Illustrator 25.2.3, SVG Export Plug-In . SVG Version: 6.00 Build 0)  -->
<svg version="1.1" id="Layer_1" xmlns="http://www.w3.org/2000/svg" xmlns:xlink="http://www.w3.org/1999/xlink" x="0px" y="0px"
	 viewBox="0 0 800 800" style="enable-background:new 0 0 800 800;" xml:space="preserve">
<style type="text/css">
	.st0{fill:#FFFFFF;}
</style>
<g>
	<path class="st0" d="M400.76,0.01C179.5-0.5-0.5,179.28,0.01,400.25c0.51,221.2,178.31,399.12,399.4,399.74
		S799.6,621.63,799.99,399.58C800.39,178.94,622.14,0.52,400.76,0.01z M612.71,499.2c-1.24,72.3-51.65,121.41-123.89,122.03
		c-60.9,0.51-121.81,0.45-182.71,0c-61.69-0.45-108.2-36.58-120.45-93.3c-2.48-11.63-3.16-23.76-3.33-35.73
		c-0.45-28.79-0.17-57.63-0.17-86.47h0.45c0-33.58-1.19-67.28,0.28-100.81c3.05-67.39,51.7-114.69,119.32-115.77
		c63.27-1.02,126.6-0.9,189.88-0.11c70.05,0.85,119.44,50.24,120.62,121.07C613.78,373.1,613.84,436.21,612.71,499.2z"/>
	<path class="st0" d="M491.64,224.07c-61.19-0.96-122.43-0.9-183.61,0c-52.21,0.73-83.26,30.87-83.99,82.07
		c-0.96,62.37-0.85,124.8,0,187.17c0.51,39.57,21.34,68.13,55.77,78.4c10.72,3.16,22.41,4.35,33.64,4.57
		c29.13,0.62,58.25,0.23,87.32,0.23v-0.11c30.59,0,61.24,0.51,91.83-0.11c51.93-1.07,83.65-33.53,83.88-85.4c0.23-60,0.23-120,0-180
		C576.25,257.99,544.58,224.92,491.64,224.07z M399.01,509.79c-60.62-0.17-110.63-50.07-110.24-109.78
		c0.45-62.2,50.07-111.36,111.99-111.03c61.02,0.4,111.08,50.74,110.8,111.53C511.28,461.36,461.16,510.01,399.01,509.79z
		 M515.23,309.86c-14.96,0.17-26.47-11.18-26.42-25.91c0.11-14.22,11.46-25.74,25.68-26.02c14.62-0.23,26.19,11.35,26.19,26.19
		C540.63,298.74,529.79,309.75,515.23,309.86z"/>
	<path class="st0" d="M400.23,328.37c-39.4-0.06-71.63,32.06-71.68,71.4c-0.11,39.45,31.83,71.57,71.29,71.85
		c39.29,0.23,71.57-32,71.63-71.46C471.57,360.66,439.57,328.43,400.23,328.37z"/>
</g>
</svg>
