<?xml version="1.0" encoding="utf-8"?>
<!-- Generator: Adobe Illustrator 25.2.3, SVG Export Plug-In . SVG Version: 6.00 Build 0)  -->
<svg version="1.1" id="Layer_1" xmlns="http://www.w3.org/2000/svg" xmlns:xlink="http://www.w3.org/1999/xlink" x="0px" y="0px"
	 viewBox="0 0 800 800" style="enable-background:new 0 0 800 800;" xml:space="preserve">
<style type="text/css">
	.st0{fill:#FFFFFF;}
</style>
<path class="st0" d="M444.46,399.49h11.68c21.34,0,42.73-0.17,64.01,0.11c6.04,0.11,8.52-1.52,9.14-7.9
	c1.13-12.87,3.56-25.57,4.97-38.44c1.98-17.84,3.5-35.73,5.31-54.75h-94.04c0-24.55-0.17-48.03,0.23-71.51
	c0.06-3.5,2.6-7.34,4.85-10.33c6.38-8.13,14.96-11.8,25.4-11.68c20.94,0.23,41.88,0.11,62.99,0.11V100
	c-46.68,3.16-93.02-4.8-138.57,6.21c-28.96,6.94-51.98,22.63-66.32,49.39c-9.65,18.01-13.26,37.54-13.1,57.91
	c0.17,28.11,0.06,56.22,0.06,85.85h-60.23v100.24h60.34v299.61h123.27V399.49z M399.93,800.02
	c-221.94,0-400.24-178.93-399.91-401.15C0.36,175.3,184.88-3.86,407.27,0.04c217.65,3.84,397.2,184.4,392.62,408.66
	C795.49,625.27,617.41,801.09,399.93,800.02"/>
</svg>
