<?xml version="1.0" encoding="utf-8"?>
<!-- Generator: Adobe Illustrator 26.0.1, SVG Export Plug-In . SVG Version: 6.00 Build 0)  -->
<svg version="1.1" id="Layer_1" xmlns="http://www.w3.org/2000/svg" xmlns:xlink="http://www.w3.org/1999/xlink" x="0px" y="0px"
	 viewBox="0 0 54.9 53.8" style="enable-background:new 0 0 54.9 53.8;" xml:space="preserve">
<style type="text/css">
	.st0{fill:#FFFFFF;}
</style>
<g>
	<g>
		<polygon class="st0" points="25.9,37.7 25.9,37.7 25.9,37.7 		"/>
	</g>
	<g>
		<g>
			<path class="st0" d="M28,0h-1.1C12,0,0,12,0,26.9v0c0,14.8,12,26.9,26.9,26.9H28c14.8,0,26.9-12,26.9-26.9v0C54.9,12,42.8,0,28,0
				z M21.2,11.8c0.6-0.6,1.6-0.6,2.3,0c0.6,0.6,0.6,1.6,0,2.3c-0.6,0.6-1.6,0.6-2.3,0C20.6,13.5,20.6,12.5,21.2,11.8z M18.7,15.5
				c1.3,0,2.3,1,2.3,2.3c0,1.3-1,2.3-2.3,2.3s-2.3-1-2.3-2.3C16.4,16.6,17.5,15.5,18.7,15.5z M14.6,25.6c0-1.8,1.5-3.3,3.3-3.3
				s3.3,1.5,3.3,3.3s-1.5,3.3-3.3,3.3S14.6,27.4,14.6,25.6z M39.7,29.8c-0.3,0.1-0.6,0.3-0.6,0.6c0,0-0.5,2.6-1,4.3
				c-0.5,1.9-1.7,2.5-3.7,2.5c-2.2,0-2.5-0.4-3.9-0.4c-0.5,0-0.9,0.4-0.9,0.9c0,0,0,0,0,0c0,2.6,1,3.9,3.8,3.9v0.7
				c-2.6,0-8.8,0-11.4,0v-0.7c2.8,0,3.8-1.3,3.8-3.9h0c0,0,0,0,0,0c0-0.5-0.4-0.9-0.9-0.9c-0.9,0-1.9,0.9-4.2,0.9
				c-1.9,0-3.5-1.6-3.5-3.5s1.6-3.5,3.5-3.5c1,0,1.8,0.4,2.5,1c0.3,0.3,0.7,0.5,1.2,0.5c1,0,1.7-0.8,1.7-1.7c0-0.7-0.4-1.3-1.1-1.6
				C23.9,28.2,23,27,23,25.6c0-1.9,1.5-3.4,3.4-3.4c0.4,0,0.8,0.1,1.2,0.2c0.1,0.1,0.3,0.1,0.5,0.1c0.8,0,1.5-0.7,1.5-1.5
				s-0.7-1.5-1.5-1.5c-0.3,0-0.6,0.1-0.9,0.3c-0.4,0.3-1,0.5-1.5,0.5c-1.4,0-2.5-1.1-2.5-2.5c0-1.4,1.1-2.5,2.5-2.5
				c0.5,0,1,0.2,1.4,0.5c0.2,0.2,0.6,0.3,0.9,0.3c0.8,0,1.5-0.7,1.5-1.5c0-0.8-0.7-1.5-1.5-1.5c-0.1,0-0.1,0-0.2,0
				c-0.1,0-0.2,0-0.2,0c-0.8,0-1.5-0.7-1.5-1.5s0.7-1.5,1.5-1.5c7.4,0,11.8,6.5,11.1,11.8c-0.1,0.4-0.2,0.8-0.2,1.1
				c0,0.3,0.1,0.5,0.2,0.7l2.1,3.8c0.1,0.2,0.2,0.5,0.2,0.7C40.9,29.1,40.4,29.7,39.7,29.8z"/>
		</g>
	</g>
</g>
</svg>
