<?xml version="1.0" encoding="utf-8"?>
<!-- Generator: Adobe Illustrator 26.0.1, SVG Export Plug-In . SVG Version: 6.00 Build 0)  -->
<svg version="1.1" id="Layer_1" xmlns="http://www.w3.org/2000/svg" xmlns:xlink="http://www.w3.org/1999/xlink" x="0px" y="0px"
	 viewBox="0 0 200 30.3" style="enable-background:new 0 0 200 30.3;" xml:space="preserve">
<style type="text/css">
	.st0{fill:#FFFFFF;}
</style>
<path class="st0" d="M67.6,0c-8.4,0-15.2,6.8-15.2,15.2s6.8,15.2,15.2,15.2s15.2-6.8,15.2-15.2S75.9,0,67.6,0z M63.4,6.2
	c0.4-0.4,1-0.4,1.4,0s0.4,1,0,1.4s-1,0.4-1.4,0C63,7.3,63,6.6,63.4,6.2z M61.9,8.6c0.8,0,1.5,0.7,1.5,1.5s-0.7,1.5-1.5,1.5
	s-1.5-0.7-1.5-1.5C60.4,9.2,61,8.6,61.9,8.6z M59.2,15c0-1.1,0.9-2.1,2.1-2.1s2.1,0.9,2.1,2.1c0,1.1-0.9,2.1-2.1,2.1
	S59.2,16.1,59.2,15z M75.1,17.6c-0.2,0-0.3,0.2-0.4,0.4c0,0-0.3,1.6-0.6,2.7c-0.3,1.2-1.1,1.6-2.3,1.6c-1.4,0-1.6-0.3-2.4-0.3
	c-0.3,0-0.6,0.3-0.6,0.6l0,0c0,1.6,0.6,2.4,2.4,2.4v0.4c-1.6,0-5.6,0-7.2,0V25c1.8,0,2.4-0.8,2.4-2.4l0,0l0,0c0-0.3-0.3-0.6-0.6-0.6
	c-0.6,0-1.2,0.5-2.6,0.5c-1.2,0-2.2-1-2.2-2.2s1-2.2,2.2-2.2c0.6,0,1.2,0.2,1.6,0.6c0.2,0.2,0.5,0.3,0.7,0.3c0.6,0,1.1-0.5,1.1-1.1
	c0-0.5-0.3-0.8-0.7-1c-0.8-0.3-1.3-1.1-1.3-2c0-1.2,1-2.1,2.1-2.1c0.3,0,0.5,0,0.7,0.1c0.1,0,0.2,0,0.3,0c0.5,0,0.9-0.4,0.9-0.9
	s-0.4-0.9-0.9-0.9c-0.2,0-0.4,0.1-0.5,0.2c-0.3,0.2-0.6,0.3-1,0.3c-0.9,0-1.6-0.7-1.6-1.6c0-0.9,0.7-1.6,1.6-1.6
	c0.3,0,0.7,0.1,0.9,0.3C67.3,8.9,67.5,9,67.7,9c0.5,0,0.9-0.4,0.9-0.9s-0.4-0.9-0.9-0.9h-0.1h-0.1c-0.5,0-0.9-0.4-0.9-0.9
	s0.4-0.9,0.9-0.9c4.7,0,7.5,4.1,7,7.5c0,0.2-0.1,0.5-0.1,0.7s0,0.3,0.1,0.5l1.3,2.4c0.1,0.1,0.1,0.3,0.1,0.5
	C75.9,17.1,75.6,17.5,75.1,17.6z M30.4,18.8c-1.7,0-3.2,1-3.7,2.5c-0.4,1.5-1.3,2.2-2.7,2.2c-1.1,0-1.9-0.5-2.3-1.4S21,19.6,21,17.5
	c0-0.6,0-1.1,0-1.4h8.4c1,0,2-0.4,2.7-1c0.7-0.7,1.1-1.5,1.1-2.5c-0.1-2-0.1-3.3-0.2-3.8C32.7,7.2,32.2,6,31.4,5
	c-1.6-1.9-4.1-2.8-7.4-2.8c-3.5,0-6,0.9-7.6,2.6c-0.9,1-1.5,2.3-1.8,3.9c-0.2,1.2-0.3,3.1-0.3,5.6c0,3.1,0.1,5.3,0.3,6.6
	c0.3,2,1,3.5,2.1,4.7c1.5,1.6,3.9,2.4,7.2,2.4c3.2,0,5.6-0.7,7.1-2c1.5-1.3,2.3-3.3,2.3-6.2v-1.1L30.4,18.8L30.4,18.8z M21.1,10
	c0.1-1,0.3-1.7,0.6-2.2c0.4-0.6,1.2-0.9,2.2-0.9c1.1,0,1.9,0.3,2.3,0.9s0.6,1.7,0.6,3.3V12h-5.7v-0.2C21,11.2,21,10.6,21.1,10z
	 M51.9,25.7v1.7H39.1c-2.1,0-3.8-1.5-3.8-3.4v-0.4c0-0.6,0.2-1.1,0.5-1.6l8.6-14.1h-5.1c-2.1,0-3.8-1.5-3.8-3.4V2.9H48
	c2.1,0,3.8,1.5,3.8,3.4c0,0.6-0.2,1.1-0.5,1.6l-8.8,14.4h5.6C50.2,22.4,51.9,23.9,51.9,25.7z M118.1,2.3c-3.3,0-9.5,1.4-9.5,7.5V10
	h3.3c1.5,0,2.8-0.8,3.4-2c0.5-0.9,1.4-1.4,2.8-1.4c1.8,0,2.6,0.7,2.6,2.2c0,0.9-0.4,1.6-1.2,2.1c-0.2,0.1-1.5,0.7-3.7,1.5
	c-2.8,1.1-4.7,2.2-5.7,3.2c-1.2,1.2-1.9,3-1.9,5.2c0,5.3,4.5,7.2,8.7,7.2c6.3,0,10.2-1.8,10.2-8.8V10C127.1,3.7,121.4,2.3,118.1,2.3
	z M120.8,18.7c0,3.1-1,4.7-3.1,4.7c-1.8,0-2.6-0.9-2.6-2.8c0-1.1,0.5-2.1,1.4-2.9c0.8-0.7,2.3-1.5,4.3-2.4
	C120.8,15.3,120.8,18.7,120.8,18.7z M162,28.1C162.1,28.1,161.8,28.1,162,28.1L162,28.1z M171.1,21.2c0,4.4-3.4,6.9-9.1,6.9
	c-2.8,0-8.7-1.8-8.7-8.9v-0.1h2.5c1.8,0,3.3,1.1,3.7,2.7c0.1,0.5,0.3,0.8,0.4,1c0.4,0.6,1.2,0.8,2.2,0.8c1.4,0.1,2.3-0.7,2.5-1.5
	c0.3-0.8,0.1-2-1-2.6c-0.6-0.4-7.1-4.3-8.4-5.7s-1.9-2.9-1.9-4.8c0-4.5,3.1-6.7,9-6.7c2.6,0,8.3,1.4,8.3,8.2v0.1h-2.5
	c-1.6,0-3-0.9-3.6-2.3c-0.4-1.1-1.4-1.6-2.6-1.6c-1.1-0.1-2,0.4-2.3,1.2c-0.4,0.9-0.1,1.9,0.7,2.5c0,0,4.6,3.1,5.5,3.6
	C169.1,16.1,170.7,17,171.1,21.2z M186,2.6h0.5v1c0,0.7-0.3,1.3-0.9,1.8c-0.5,0.5-1.3,0.7-2,0.7l0,0c-0.9,0-1.2,0-1.2,0h-0.1
	c-0.6,0-0.8,0.2-0.8,0.6v2.9l4.1,0.1v1.1c0,1.4-1.3,2.6-2.9,2.5h-1.2l-0.1,6.4l-5.1-0.1l0.2-13c0-1.5,0.4-2.5,1-3.2
	c0.7-0.7,1.8-1,3.4-1C181.1,2.5,185.1,2.6,186,2.6z M199.9,13.8c-0.1,4.1-2.3,6.2-6.4,6.1c-2.5,0-4.3-0.8-5.2-2.3
	c-0.8-1.3-1.2-3.5-1.2-6.6s0.5-5.3,1.4-6.6c1-1.5,2.7-2.2,5.3-2.2c4.1,0.1,6.2,2.1,6.1,5.9v0.7h-2.4c-1.3,0-2.4-0.8-2.7-1.9
	c-0.2-0.8-0.7-0.9-1.1-0.9c-0.4,0-1.3,0-1.3,2.2l-0.1,5.5c0,1.2,0.1,1.8,0.3,2.1c0.1,0.2,0.3,0.4,0.9,0.4c0.5,0,0.9-0.2,1-0.6
	c0.1-0.2,0.2-0.4,0.2-0.8c0.2-1.2,1.5-2.2,2.9-2.2h2.1v0.5C199.9,13.4,200,13.5,199.9,13.8z M150.3,10.7v16.8h-2.8
	c-2.1,0-3.8-1.5-3.8-3.4V10.9c0-1.9-1.6-3.4-3.5-3.4l0,0c-2,0-3.5,1.5-3.5,3.4v16.5h-2.8c-2.1,0-3.8-1.5-3.8-3.4V10.7
	c0-4.4,3.7-8.1,8.6-8.4h3C146.5,2.5,150.3,6.3,150.3,10.7z M105.7,10.7v16.8h-2.8c-2.1,0-3.8-1.5-3.8-3.4V10.9
	c0-1.9-1.6-3.4-3.5-3.4l0,0c-2,0-3.5,1.5-3.5,3.4v16.5h-2.8c-2.1,0-3.8-1.5-3.8-3.4V10.7c0-4.4,3.7-8.1,8.6-8.4h3
	C101.9,2.5,105.7,6.3,105.7,10.7z M13.8,5c0,1.9-1.7,3.4-3.8,3.4c-1.9,0-3.4,1.4-3.4,3.1v16H3.8C1.7,27.4,0,25.9,0,24V12
	c0-5,4.5-9.1,10.1-9.1h3.7V5z"/>
</svg>
