<?xml version="1.0" encoding="utf-8"?>
<!-- Generator: Adobe Illustrator 26.0.1, SVG Export Plug-In . SVG Version: 6.00 Build 0)  -->
<svg version="1.1" id="Layer_1" xmlns="http://www.w3.org/2000/svg" xmlns:xlink="http://www.w3.org/1999/xlink" x="0px" y="0px"
	 viewBox="0 0 71.3 71.1" style="enable-background:new 0 0 71.3 71.1;" xml:space="preserve">
<style type="text/css">
	.st0{fill:#718B91;}
	.st1{fill:#FFFFFF;}
</style>
<g>
	<g>
		<path class="st0" d="M60,71.1H11.3C5.1,71.1,0,66,0,59.8V11.3C0,5.1,5.1,0,11.3,0H60c6.3,0,11.3,5.1,11.3,11.3v48.4
			C71.3,66,66.3,71.1,60,71.1z"/>
	</g>
</g>
<path class="st1" d="M46.3,14.6c-1.7-1.7-3.8-2.5-6.2-2.5H17.5v47.1h9.6V42.4h13c2.4,0,4.5-0.9,6.2-2.6c1.7-1.7,2.5-3.8,2.5-6.1
	V20.7C48.8,18.3,48,16.2,46.3,14.6z M39.4,22.8v8.9c0,0.3-0.1,0.6-0.4,0.9c-0.3,0.3-0.5,0.4-0.9,0.4H27.1V21.4h10.9
	c0.4,0,0.7,0.1,0.9,0.4C39.3,22.1,39.4,22.4,39.4,22.8z"/>
</svg>
