<svg version="1.1" id="Layer_1" xmlns="http://www.w3.org/2000/svg" x="0" y="0" viewBox="0 0 71.3 71.3" style="enable-background:new 0 0 71.3 71.3" xml:space="preserve"><style>.st0{fill:#de4b29}</style><path class="st0" d="M60 71.2H11.3C5.1 71.2 0 66.1 0 59.9V11.4C0 5.2 5.1.1 11.3.1H60c6.3 0 11.3 5.1 11.3 11.3v48.4c0 6.3-5.1 11.4-11.3 11.4z"/><circle class="st0" cx="35.7" cy="35.7" r="35.7"/><path d="M58.8 26.4h-.7v-.9c0-.9-.7-1.6-1.6-1.6h-1.9v-8.4c0-1.6-1.2-2.9-2.8-3 0 0-8-.8-16.1-.8s-16.1.8-16.1.8c-1.6.1-2.8 1.4-2.8 3v8.4h-1.9c-.9 0-1.6.7-1.6 1.6v.9h-.7c-.3 0-.6.3-.6.6v6.1c0 .7.5 1.2 1.2 1.2h1.1c.7 0 1.2-.5 1.2-1.2V27c0-.3-.3-.6-.6-.6h-.7v-.9c0-.3.3-.6.6-.6h1.9v30c0 1.1.9 2 2 2v1.7c0 .6.5 1 1 1h3.9c.6 0 1-.5 1-1v-1.7h21.9v1.7c0 .6.5 1 1 1h3.9c.6 0 1-.5 1-1v-1.7c1.1 0 2-.9 2-2v-30h1.9c.3 0 .6.3.6.6v.9h-.7c-.3 0-.6.3-.6.6v6.1c0 .7.5 1.2 1.2 1.2h1.1c.7 0 1.2-.5 1.2-1.2V27c.2-.3 0-.6-.3-.6zM23.2 15.7c0-.5.4-.9.9-.9h23.1c.5 0 .9.4.9.9V18c0 .5-.4.9-.9.9H24.1c-.5 0-.9-.4-.9-.9v-2.3zM20 50.6c-.8 0-1.4-.6-1.4-1.4 0-.8.6-1.4 1.4-1.4s1.4.6 1.4 1.4c0 .7-.7 1.4-1.4 1.4zm4.8.9c-1.1 0-2-.9-2-2s.9-2 2-2 2 .9 2 2-.9 2-2 2zm17.5 2.9c0 .2-.2.4-.4.4H29.4c-.2 0-.4-.2-.4-.4V53c0-.2.2-.4.4-.4h12.5c.2 0 .4.2.4.4v1.4zm4.2-2.9c-1.1 0-2-.9-2-2s.9-2 2-2 2 .9 2 2-.9 2-2 2zm4.9-.9c-.8 0-1.4-.6-1.4-1.4 0-.8.6-1.4 1.4-1.4.8 0 1.4.6 1.4 1.4 0 .7-.7 1.4-1.4 1.4zm1.4-10.4c0 1.2-.9 2.3-2.1 2.5 0 0-6.8 1.5-15 1.5s-15-1.5-15-1.5c-1.2-.2-2.1-1.3-2.1-2.5V22.4c0-.8.6-1.4 1.4-1.4h31.4c.8 0 1.4.6 1.4 1.4v17.8z" style="fill:#f1e8ce"/></svg>