<svg xmlns="http://www.w3.org/2000/svg" viewBox="0 0 300 300" style="enable-background:new 0 0 300 300" xml:space="preserve"><path d="M115.2 38.8c-3.3-3.3-3.3-8.7 0-12.1s8.7-3.3 12.1 0c3.3 3.3 3.3 8.7 0 12.1-3.4 3.3-8.8 3.3-12.1 0zm-12.9 32.4c6.9 0 12.4-5.6 12.4-12.4 0-6.9-5.6-12.4-12.4-12.4S89.9 52 89.9 58.8c-.1 6.9 5.5 12.4 12.4 12.4zm12.3 28.6c0-9.5-7.7-17.3-17.3-17.3-9.5 0-17.3 7.7-17.3 17.3 0 9.5 7.7 17.3 17.3 17.3 9.6 0 17.3-7.8 17.3-17.3zm25.4 64.1zm79-53.5-11.1-20.1c-.7-1.2-1.1-2.5-1.1-4 0-1.8.6-3.8.9-5.8 3.8-28.1-19.5-62.5-59-62.5-4.4 0-7.9 3.5-7.9 7.9s3.5 7.9 7.9 7.9c.4 0 .8 0 1.3-.1.3 0 .7-.1 1-.1 4.4 0 7.9 3.5 7.9 7.9s-3.5 7.9-7.9 7.9c-1.7 0-3.3-.6-4.6-1.5-2.2-1.5-4.8-2.4-7.6-2.4-7.3 0-13.2 5.9-13.2 13.2s5.9 13.2 13.2 13.2c3 0 5.8-1 8-2.7 1.3-.9 2.9-1.5 4.6-1.5 4.3 0 7.8 3.5 7.8 7.8s-3.5 7.8-7.8 7.8c-.9 0-1.8-.1-2.5-.4-1.9-.7-4-1.1-6.2-1.1-9.8 0-17.8 8-17.8 17.8 0 7.5 4.6 13.8 11.1 16.5 3.3 1.4 5.6 4.7 5.6 8.5 0 5.1-4.1 9.2-9.2 9.2-2.4 0-4.6-.9-6.2-2.4-3.4-3.3-8-5.3-13-5.3-10.3 0-18.7 8.4-18.7 18.7s8.4 18.7 18.7 18.7c11.9 0 17.2-4.6 22.2-4.6 2.7 0 4.8 2.2 4.9 4.8 0 13.6-5.3 20.5-20.2 20.5v3.6h60.5v-3.6c-14.9 0-20.2-6.9-20.2-20.5 0-2.7 2.2-4.8 4.9-4.8 7.5 0 8.6 2.2 20.5 2.2 10.8 0 17-3.2 19.7-13.2 2.4-9 5.2-22.6 5.2-22.6.4-1.6 1.7-2.9 3.3-3.3 3.6-.8 6.3-4 6.3-7.8-.3-1.3-.7-2.6-1.3-3.8zM84.5 205.7l1 8.7H71.3c-1.2 0-2.1.9-2.1 2.1v6.5h14.6v8.3H69.2v16.5H58.9V214c0-4.6 3.7-8.3 8.3-8.3h17.3zm41.7 34.5H111l-2.6 7.7h-12l15.4-39.5c.6-1.6 2.2-2.7 3.9-2.7h6c1.7 0 3.3 1.1 3.9 2.7l15.2 39.5h-12l-2.6-7.7zm-2.6-7.8-2.7-8c-.8-2.5-1.7-5.7-2.3-9h-.2c-.5 3.3-1.4 6.5-2.3 9l-2.7 8h10.2zm116.5-26.7 1 8.7h-14.9c-1.2 0-2.1.9-2.1 2.1v5.8h15.2v8.3H224v6.5c0 1.2.9 2.1 2.1 2.1H241l-1 8.7h-18c-4.6 0-8.3-3.7-8.3-8.3V214c0-4.6 3.7-8.3 8.3-8.3h18.1zM58.3 271.6c0-6.3 4.8-10.4 10.6-10.4 3.6 0 7 1.6 8.8 4.8l-4.6 2.7c-.4.2-1 .2-1.3-.2-.7-.8-1.6-1.2-2.6-1.2-2 0-3.7 1.6-3.7 4.3 0 2.6 1.7 4.3 3.8 4.3.9 0 1.8-.3 2.5-1.2.3-.4.9-.4 1.3-.2l4.6 2.7c-1.8 3.2-5.2 4.8-8.8 4.8-5.9 0-10.6-4.2-10.6-10.4zm164.1 0c0-6.3 4.8-10.4 10.6-10.4 3.6 0 7 1.6 8.8 4.8l-4.6 2.7c-.4.2-1 .2-1.3-.2-.7-.8-1.6-1.2-2.6-1.2-2 0-3.7 1.6-3.7 4.3 0 2.6 1.7 4.3 3.8 4.3.9 0 1.8-.3 2.5-1.2.3-.4.9-.4 1.3-.2l4.6 2.7c-1.8 3.2-5.2 4.8-8.8 4.8-6 0-10.6-4.2-10.6-10.4zm-118.9-9.8v13c0 .5.4.8.8.8h7.1l-.7 5.8h-9.5c-2.3 0-4.2-1.9-4.2-4.2v-15.5h6.5zm33.5 0v19.7h-6.5v-19.7h6.5zm20.2 0h6.9l3.5 5.5c.7 1.1 1.4 2.1 2.6 4.3h.1c-.4-2.2-.5-3.3-.5-4.9v-4.9h6.5v19.7h-6.4l-3.9-5.7c-.7-1.1-1.4-2.1-2.7-4.3h-.1c.4 2.2.6 3.3.6 4.9v5.1h-6.4v-19.7zm45.6 0v19.7h-6.5v-19.7h6.5zm-49-35c0-13.2 9.8-22.3 22.3-22.3 8.1 0 15 3.5 18.9 10.7l-6.8 4.1c-.9.6-2.1.3-2.7-.5-2.2-3-5.4-4.5-9.1-4.5-6.4 0-11.5 5.1-11.5 12.6 0 7.4 5.1 12.5 11.7 12.5 3.8 0 6.7-1.2 9-4.5.6-.9 1.9-1.2 2.8-.6l6.7 4.1C191 245.5 184.2 249 176 249c-12.5 0-22.2-9.1-22.2-22.2z" style="fill:#fff"/></svg>