<svg xmlns="http://www.w3.org/2000/svg" viewBox="0 0 300 300" style="enable-background:new 0 0 300 300" xml:space="preserve"><path d="M150 29C83.2 29 29 83.2 29 150s54.2 121 121 121 121-54.2 121-121S216.8 29 150 29zm-33.1 49.7c3.2-3.2 8.3-3.2 11.5 0 3.2 3.2 3.2 8.3 0 11.5-3.2 3.2-8.3 3.2-11.5 0-3.2-3.1-3.2-8.3 0-11.5zm-12.3 18.8c6.5 0 11.8 5.3 11.8 11.8 0 6.5-5.3 11.8-11.8 11.8-6.5 0-11.8-5.3-11.8-11.8-.1-6.5 5.2-11.8 11.8-11.8zm-21.2 50.8c0-9.1 7.4-16.4 16.4-16.4s16.4 7.4 16.4 16.4c0 9.1-7.4 16.4-16.4 16.4s-16.4-7.3-16.4-16.4zm127.2 21.3c-1.6.4-2.8 1.6-3.2 3.1 0 0-2.7 12.9-5 21.5-2.5 9.5-8.4 12.6-18.7 12.6-11.3 0-12.4-2.1-19.5-2.1-2.6 0-4.6 2.1-4.6 4.6 0 13 5.1 19.5 19.3 19.5v3.4h-57.5v-3.4c14.2 0 19.3-6.6 19.3-19.5 0-2.5-2.1-4.6-4.6-4.6-4.8 0-9.8 4.4-21.1 4.4-9.8 0-17.8-8-17.8-17.8s8-17.8 17.8-17.8c4.8 0 9.2 1.9 12.4 5 1.6 1.4 3.7 2.3 5.9 2.3 4.9 0 8.8-3.9 8.8-8.8 0-3.6-2.2-6.7-5.3-8.1-6.2-2.5-10.5-8.6-10.5-15.7 0-9.4 7.6-16.9 16.9-16.9 2.1 0 4 .4 5.9 1.1.8.3 1.6.4 2.4.4 4.1 0 7.4-3.3 7.4-7.4 0-4.1-3.3-7.4-7.4-7.4-1.6 0-3.1.5-4.3 1.4-2.1 1.6-4.8 2.6-7.6 2.6-7 0-12.6-5.6-12.6-12.6s5.6-12.6 12.6-12.6c2.7 0 5.2.9 7.3 2.3 1.2.9 2.8 1.4 4.4 1.4 4.2 0 7.5-3.4 7.5-7.5 0-4.2-3.4-7.5-7.5-7.5-.3 0-.6 0-.9.1-.4.1-.8.1-1.2.1-4.2 0-7.5-3.4-7.5-7.5 0-4.2 3.4-7.5 7.5-7.5 37.6 0 59.7 32.7 56.1 59.5-.3 1.9-.8 3.8-.8 5.6 0 1.4.4 2.7 1 3.8l10.5 19.1c.6 1.1 1 2.4 1 3.7-.4 3.4-3 6.4-6.4 7.2z" style="fill:#fff"/></svg>