<svg xmlns="http://www.w3.org/2000/svg" viewBox="0 0 300 300" style="enable-background:new 0 0 300 300" xml:space="preserve"><path d="m219.1 167.5-4 34.3c0 2.2-1.8 4-4 4v-38.3c0-2.2 1.8-4 4-4 2.1 0 4 1.9 4 4zm6.2-4c-2.2 0-4 1.8-4 4v38.3c2.2 0 4-1.8 4-4l4-34.3c-.1-2.1-1.9-4-4-4zm8.3.2c-1.3 1.1-2.1 2.5-2.1 4v34.2c0 1.5.8 2.7 2 3.4l32.6 25.7v-96.6c-.1 0-31.4 28.1-32.5 29.3zM81.1 175.6c-26.7 0-48.4-21.7-48.4-48.4s21.7-48.4 48.4-48.4c14.8 0 28 6.7 36.9 17.2 6.7-18.8 24.6-32.3 45.6-32.3 26.7 0 48.4 21.7 48.4 48.4s-21.7 48.4-48.4 48.4c-14.8 0-28-6.7-36.9-17.2-6.5 18.7-24.4 32.3-45.6 32.3zm66.6-63.6c0 8.9 7.2 16.1 16.1 16.1 6.1 0 11.3-3.4 14.1-8.3-2.2 2.9-5.8 4.9-9.8 4.9-6.8 0-12.4-5.5-12.4-12.4 0-6.8 5.5-12.4 12.4-12.4 4.8 0 8.9 2.7 11 6.7-2.2-6.3-8.2-10.9-15.3-10.9-8.9 0-16.1 7.3-16.1 16.3zm-52.4 22.9c-2.2 2.9-5.8 4.9-9.8 4.9-6.8 0-12.4-5.5-12.4-12.4S78.6 115 85.5 115c4.8 0 8.9 2.7 11 6.7-2.2-6.3-8.2-10.9-15.3-10.9-8.9 0-16.1 7.2-16.1 16.1S72.3 143 81.2 143c6 .2 11.4-3.2 14.1-8.1zm72.8 29.1c-13.4 0-26.3-5.3-35.8-14.5-7.1 14.9-20.9 25.6-37 28.7v27.1c0 9.5 7.7 17 17 17h76.9c9.5 0 17-7.7 17-17v-45.5c0-3.6-1.2-6.9-3-9.7-9.1 8.7-21.5 13.9-35.1 13.9z" style="fill:#5c9cd4"/></svg>