<svg version="1.1" id="Layer_1" xmlns="http://www.w3.org/2000/svg" x="0" y="0" viewBox="0 0 800 800" style="enable-background:new 0 0 800 800" xml:space="preserve"><style>.st0{fill:#fff}</style><path class="st0" d="M400.76.01C179.5-.5-.5 179.28.01 400.25c.51 221.2 178.31 399.12 399.4 399.74S799.6 621.63 799.99 399.58C800.39 178.94 622.14.52 400.76.01zM612.71 499.2c-1.24 72.3-51.65 121.41-123.89 122.03-60.9.51-121.81.45-182.71 0-61.69-.45-108.2-36.58-120.45-93.3-2.48-11.63-3.16-23.76-3.33-35.73-.45-28.79-.17-57.63-.17-86.47h.45c0-33.58-1.19-67.28.28-100.81 3.05-67.39 51.7-114.69 119.32-115.77 63.27-1.02 126.6-.9 189.88-.11 70.05.85 119.44 50.24 120.62 121.07 1.07 62.99 1.13 126.1 0 189.09z"/><path class="st0" d="M491.64 224.07c-61.19-.96-122.43-.9-183.61 0-52.21.73-83.26 30.87-83.99 82.07-.96 62.37-.85 124.8 0 187.17.51 39.57 21.34 68.13 55.77 78.4 10.72 3.16 22.41 4.35 33.64 4.57 29.13.62 58.25.23 87.32.23v-.11c30.59 0 61.24.51 91.83-.11 51.93-1.07 83.65-33.53 83.88-85.4.23-60 .23-120 0-180-.23-52.9-31.9-85.97-84.84-86.82zm-92.63 285.72c-60.62-.17-110.63-50.07-110.24-109.78.45-62.2 50.07-111.36 111.99-111.03 61.02.4 111.08 50.74 110.8 111.53-.28 60.85-50.4 109.5-112.55 109.28zm116.22-199.93c-14.96.17-26.47-11.18-26.42-25.91.11-14.22 11.46-25.74 25.68-26.02 14.62-.23 26.19 11.35 26.19 26.19-.05 14.62-10.89 25.63-25.45 25.74z"/><path class="st0" d="M400.23 328.37c-39.4-.06-71.63 32.06-71.68 71.4-.11 39.45 31.83 71.57 71.29 71.85 39.29.23 71.57-32 71.63-71.46.1-39.5-31.9-71.73-71.24-71.79z"/></svg>