<svg xmlns="http://www.w3.org/2000/svg" viewBox="0 0 800 800" style="enable-background:new 0 0 800 800" xml:space="preserve"><path d="M496.88 101.6H303.12c-25.59 0-46.33 20.74-46.33 46.33v504.14c0 25.59 20.74 46.33 46.33 46.33h193.75c25.59 0 46.33-20.74 46.33-46.33V147.93c.01-25.59-20.74-46.33-46.32-46.33zm-128.46 43.09h63.17a4.511 4.511 0 0 1 0 9.02h-63.17c-2.49 0-4.51-2.02-4.51-4.51a4.498 4.498 0 0 1 4.51-4.51zM400 678.64c-13.43 0-24.33-10.89-24.33-24.33 0-13.43 10.89-24.33 24.33-24.33s24.33 10.89 24.33 24.33c0 13.44-10.9 24.33-24.33 24.33zm120.11-62.34H279.89V185.28h240.22V616.3zM231.69 294.11c-22.39 29.44-35.71 66.13-35.71 105.89 0 39.75 13.31 76.45 35.71 105.89l-18.77 16.48c-26.23-33.86-41.87-76.32-41.87-122.37 0-46.05 15.64-88.51 41.87-122.36l18.77 16.47zm-90 105.89c0 53.46 18.37 102.71 49.13 141.76l-18.75 16.46c-34.61-43.47-55.32-98.47-55.32-158.22s20.71-114.75 55.32-158.22l18.75 16.46c-30.76 39.05-49.13 88.3-49.13 141.76zm-54.39 0c0 67.19 23.47 128.98 62.63 177.66l-18.75 16.46C88.17 541.04 62.36 473.48 62.36 400s25.81-141.04 68.81-194.12l18.75 16.46C110.77 271.02 87.3 332.81 87.3 400zm541.65 0c0 46.05-15.64 88.51-41.87 122.37l-18.77-16.48c22.39-29.44 35.71-66.13 35.71-105.89 0-39.75-13.31-76.45-35.71-105.89l18.77-16.48c26.23 33.86 41.87 76.32 41.87 122.37zm108.69 0c0 73.48-25.81 141.04-68.82 194.12l-18.75-16.46C689.23 528.98 712.7 467.19 712.7 400s-23.47-128.98-62.63-177.66l18.75-16.46c43.01 53.08 68.82 120.64 68.82 194.12zm-54.39 0c0 59.75-20.71 114.75-55.32 158.22l-18.75-16.46c30.76-39.06 49.13-88.31 49.13-141.76 0-53.46-18.37-102.71-49.13-141.76l18.75-16.46c34.61 43.47 55.32 98.47 55.32 158.22z" style="fill:#fff"/></svg>