<svg xmlns="http://www.w3.org/2000/svg" viewBox="0 0 800 800" style="enable-background:new 0 0 800 800" xml:space="preserve"><path d="M444.46 399.49h11.68c21.34 0 42.73-.17 64.01.11 6.04.11 8.52-1.52 9.14-7.9 1.13-12.87 3.56-25.57 4.97-38.44 1.98-17.84 3.5-35.73 5.31-54.75h-94.04c0-24.55-.17-48.03.23-71.51.06-3.5 2.6-7.34 4.85-10.33 6.38-8.13 14.96-11.8 25.4-11.68 20.94.23 41.88.11 62.99.11V100c-46.68 3.16-93.02-4.8-138.57 6.21-28.96 6.94-51.98 22.63-66.32 49.39-9.65 18.01-13.26 37.54-13.1 57.91.17 28.11.06 56.22.06 85.85h-60.23V399.6h60.34v299.61h123.27V399.49zm-44.53 400.53C177.99 800.02-.31 621.09.02 398.87.36 175.3 184.88-3.86 407.27.04c217.65 3.84 397.2 184.4 392.62 408.66-4.4 216.57-182.48 392.39-399.96 391.32" style="fill:#fff"/></svg>