<?xml version="1.0" encoding="utf-8"?>
<!-- Generator: Adobe Illustrator 25.2.3, SVG Export Plug-In . SVG Version: 6.00 Build 0)  -->
<svg version="1.1" id="Layer_1" xmlns="http://www.w3.org/2000/svg" xmlns:xlink="http://www.w3.org/1999/xlink" x="0px" y="0px"
	 viewBox="0 0 800 800" style="enable-background:new 0 0 800 800;" xml:space="preserve">
<style type="text/css">
	.st0{fill:#FFFFFF;}
</style>
<path class="st0" d="M496.88,101.6H303.12c-25.59,0-46.33,20.74-46.33,46.33v504.14c0,25.59,20.74,46.33,46.33,46.33h193.75
	c25.59,0,46.33-20.74,46.33-46.33V147.93C543.21,122.34,522.46,101.6,496.88,101.6z M368.42,144.69h63.17
	c2.49,0,4.51,2.02,4.51,4.51c0,2.49-2.02,4.51-4.51,4.51h-63.17c-2.49,0-4.51-2.02-4.51-4.51
	C363.9,146.71,365.92,144.69,368.42,144.69z M400,678.64c-13.43,0-24.33-10.89-24.33-24.33c0-13.43,10.89-24.33,24.33-24.33
	s24.33,10.89,24.33,24.33C424.33,667.75,413.43,678.64,400,678.64z M520.11,616.3H279.89V185.28h240.22V616.3z M231.69,294.11
	c-22.39,29.44-35.71,66.13-35.71,105.89c0,39.75,13.31,76.45,35.71,105.89l-18.77,16.48c-26.23-33.86-41.87-76.32-41.87-122.37
	c0-46.05,15.64-88.51,41.87-122.36L231.69,294.11z M141.69,400c0,53.46,18.37,102.71,49.13,141.76l-18.75,16.46
	c-34.61-43.47-55.32-98.47-55.32-158.22c0-59.75,20.71-114.75,55.32-158.22l18.75,16.46C160.06,297.29,141.69,346.54,141.69,400z
	 M87.3,400c0,67.19,23.47,128.98,62.63,177.66l-18.75,16.46C88.17,541.04,62.36,473.48,62.36,400c0-73.48,25.81-141.04,68.81-194.12
	l18.75,16.46C110.77,271.02,87.3,332.81,87.3,400z M628.95,400c0,46.05-15.64,88.51-41.87,122.37l-18.77-16.48
	c22.39-29.44,35.71-66.13,35.71-105.89c0-39.75-13.31-76.45-35.71-105.89l18.77-16.48C613.31,311.49,628.95,353.95,628.95,400z
	 M737.64,400c0,73.48-25.81,141.04-68.82,194.12l-18.75-16.46C689.23,528.98,712.7,467.19,712.7,400
	c0-67.19-23.47-128.98-62.63-177.66l18.75-16.46C711.83,258.96,737.64,326.52,737.64,400z M683.25,400
	c0,59.75-20.71,114.75-55.32,158.22l-18.75-16.46c30.76-39.06,49.13-88.31,49.13-141.76c0-53.46-18.37-102.71-49.13-141.76
	l18.75-16.46C662.54,285.25,683.25,340.25,683.25,400z"/>
</svg>
