<svg xmlns="http://www.w3.org/2000/svg" viewBox="0 0 200 30.3" style="enable-background:new 0 0 200 30.3" xml:space="preserve"><path d="M67.6 0c-8.4 0-15.2 6.8-15.2 15.2s6.8 15.2 15.2 15.2 15.2-6.8 15.2-15.2S75.9 0 67.6 0zm-4.2 6.2c.4-.4 1-.4 1.4 0s.4 1 0 1.4-1 .4-1.4 0c-.4-.3-.4-1 0-1.4zm-1.5 2.4c.8 0 1.5.7 1.5 1.5s-.7 1.5-1.5 1.5-1.5-.7-1.5-1.5c0-.9.6-1.5 1.5-1.5zM59.2 15c0-1.1.9-2.1 2.1-2.1s2.1.9 2.1 2.1c0 1.1-.9 2.1-2.1 2.1s-2.1-1-2.1-2.1zm15.9 2.6c-.2 0-.3.2-.4.4 0 0-.3 1.6-.6 2.7-.3 1.2-1.1 1.6-2.3 1.6-1.4 0-1.6-.3-2.4-.3-.3 0-.6.3-.6.6 0 1.6.6 2.4 2.4 2.4v.4H64V25c1.8 0 2.4-.8 2.4-2.4 0-.3-.3-.6-.6-.6-.6 0-1.2.5-2.6.5-1.2 0-2.2-1-2.2-2.2s1-2.2 2.2-2.2c.6 0 1.2.2 1.6.6.2.2.5.3.7.3.6 0 1.1-.5 1.1-1.1 0-.5-.3-.8-.7-1-.8-.3-1.3-1.1-1.3-2 0-1.2 1-2.1 2.1-2.1.3 0 .5 0 .7.1h.3c.5 0 .9-.4.9-.9s-.4-.9-.9-.9c-.2 0-.4.1-.5.2-.3.2-.6.3-1 .3-.9 0-1.6-.7-1.6-1.6 0-.9.7-1.6 1.6-1.6.3 0 .7.1.9.3.2.2.4.3.6.3.5 0 .9-.4.9-.9s-.4-.9-.9-.9h-.2c-.5 0-.9-.4-.9-.9s.4-.9.9-.9c4.7 0 7.5 4.1 7 7.5 0 .2-.1.5-.1.7s0 .3.1.5l1.3 2.4c.1.1.1.3.1.5 0 .1-.3.5-.8.6zm-44.7 1.2c-1.7 0-3.2 1-3.7 2.5-.4 1.5-1.3 2.2-2.7 2.2-1.1 0-1.9-.5-2.3-1.4s-.7-2.5-.7-4.6v-1.4h8.4c1 0 2-.4 2.7-1 .7-.7 1.1-1.5 1.1-2.5-.1-2-.1-3.3-.2-3.8-.3-1.6-.8-2.8-1.6-3.8-1.6-1.9-4.1-2.8-7.4-2.8-3.5 0-6 .9-7.6 2.6-.9 1-1.5 2.3-1.8 3.9-.2 1.2-.3 3.1-.3 5.6 0 3.1.1 5.3.3 6.6.3 2 1 3.5 2.1 4.7 1.5 1.6 3.9 2.4 7.2 2.4 3.2 0 5.6-.7 7.1-2s2.3-3.3 2.3-6.2v-1.1l-2.9.1zM21.1 10c.1-1 .3-1.7.6-2.2.4-.6 1.2-.9 2.2-.9 1.1 0 1.9.3 2.3.9s.6 1.7.6 3.3v.9h-5.7v-.2c-.1-.6-.1-1.2 0-1.8zm30.8 15.7v1.7H39.1c-2.1 0-3.8-1.5-3.8-3.4v-.4c0-.6.2-1.1.5-1.6l8.6-14.1h-5.1c-2.1 0-3.8-1.5-3.8-3.4V2.9H48c2.1 0 3.8 1.5 3.8 3.4 0 .6-.2 1.1-.5 1.6l-8.8 14.4h5.6c2.1.1 3.8 1.6 3.8 3.4zm66.2-23.4c-3.3 0-9.5 1.4-9.5 7.5v.2h3.3c1.5 0 2.8-.8 3.4-2 .5-.9 1.4-1.4 2.8-1.4 1.8 0 2.6.7 2.6 2.2 0 .9-.4 1.6-1.2 2.1-.2.1-1.5.7-3.7 1.5-2.8 1.1-4.7 2.2-5.7 3.2-1.2 1.2-1.9 3-1.9 5.2 0 5.3 4.5 7.2 8.7 7.2 6.3 0 10.2-1.8 10.2-8.8V10c0-6.3-5.7-7.7-9-7.7zm2.7 16.4c0 3.1-1 4.7-3.1 4.7-1.8 0-2.6-.9-2.6-2.8 0-1.1.5-2.1 1.4-2.9.8-.7 2.3-1.5 4.3-2.4v3.4zm41.2 9.4c.1 0-.2 0 0 0zm9.1-6.9c0 4.4-3.4 6.9-9.1 6.9-2.8 0-8.7-1.8-8.7-8.9v-.1h2.5c1.8 0 3.3 1.1 3.7 2.7.1.5.3.8.4 1 .4.6 1.2.8 2.2.8 1.4.1 2.3-.7 2.5-1.5.3-.8.1-2-1-2.6-.6-.4-7.1-4.3-8.4-5.7s-1.9-2.9-1.9-4.8c0-4.5 3.1-6.7 9-6.7 2.6 0 8.3 1.4 8.3 8.2v.1h-2.5c-1.6 0-3-.9-3.6-2.3-.4-1.1-1.4-1.6-2.6-1.6-1.1-.1-2 .4-2.3 1.2-.4.9-.1 1.9.7 2.5 0 0 4.6 3.1 5.5 3.6 3.3 2.1 4.9 3 5.3 7.2zM186 2.6h.5v1c0 .7-.3 1.3-.9 1.8-.5.5-1.3.7-2 .7h-1.3c-.6 0-.8.2-.8.6v2.9l4.1.1v1.1c0 1.4-1.3 2.6-2.9 2.5h-1.2l-.1 6.4-5.1-.1.2-13c0-1.5.4-2.5 1-3.2.7-.7 1.8-1 3.4-1 .2.1 4.2.2 5.1.2zm13.9 11.2c-.1 4.1-2.3 6.2-6.4 6.1-2.5 0-4.3-.8-5.2-2.3-.8-1.3-1.2-3.5-1.2-6.6s.5-5.3 1.4-6.6c1-1.5 2.7-2.2 5.3-2.2 4.1.1 6.2 2.1 6.1 5.9v.7h-2.4c-1.3 0-2.4-.8-2.7-1.9-.2-.8-.7-.9-1.1-.9-.4 0-1.3 0-1.3 2.2l-.1 5.5c0 1.2.1 1.8.3 2.1.1.2.3.4.9.4.5 0 .9-.2 1-.6.1-.2.2-.4.2-.8.2-1.2 1.5-2.2 2.9-2.2h2.1v.5c.2.3.3.4.2.7zm-49.6-3.1v16.8h-2.8c-2.1 0-3.8-1.5-3.8-3.4V10.9c0-1.9-1.6-3.4-3.5-3.4-2 0-3.5 1.5-3.5 3.4v16.5h-2.8c-2.1 0-3.8-1.5-3.8-3.4V10.7c0-4.4 3.7-8.1 8.6-8.4h3c4.8.2 8.6 4 8.6 8.4zm-44.6 0v16.8h-2.8c-2.1 0-3.8-1.5-3.8-3.4V10.9c0-1.9-1.6-3.4-3.5-3.4-2 0-3.5 1.5-3.5 3.4v16.5h-2.8c-2.1 0-3.8-1.5-3.8-3.4V10.7c0-4.4 3.7-8.1 8.6-8.4h3c4.8.2 8.6 4 8.6 8.4zM13.8 5c0 1.9-1.7 3.4-3.8 3.4-1.9 0-3.4 1.4-3.4 3.1v16H3.8C1.7 27.4 0 25.9 0 24V12c0-5 4.5-9.1 10.1-9.1h3.7V5z" style="fill:#fff"/></svg>