<svg xmlns="http://www.w3.org/2000/svg" viewBox="0 0 54.9 53.8" style="enable-background:new 0 0 54.9 53.8" xml:space="preserve"><path d="M25.9 37.7zM28 0h-1.1C12 0 0 12 0 26.9c0 14.8 12 26.9 26.9 26.9H28c14.8 0 26.9-12 26.9-26.9C54.9 12 42.8 0 28 0zm-6.8 11.8c.6-.6 1.6-.6 2.3 0 .6.6.6 1.6 0 2.3-.6.6-1.6.6-2.3 0-.6-.6-.6-1.6 0-2.3zm-2.5 3.7c1.3 0 2.3 1 2.3 2.3 0 1.3-1 2.3-2.3 2.3s-2.3-1-2.3-2.3c0-1.2 1.1-2.3 2.3-2.3zm-4.1 10.1c0-1.8 1.5-3.3 3.3-3.3s3.3 1.5 3.3 3.3-1.5 3.3-3.3 3.3-3.3-1.5-3.3-3.3zm25.1 4.2c-.3.1-.6.3-.6.6 0 0-.5 2.6-1 4.3-.5 1.9-1.7 2.5-3.7 2.5-2.2 0-2.5-.4-3.9-.4-.5 0-.9.4-.9.9 0 2.6 1 3.9 3.8 3.9v.7H22v-.7c2.8 0 3.8-1.3 3.8-3.9 0-.5-.4-.9-.9-.9-.9 0-1.9.9-4.2.9-1.9 0-3.5-1.6-3.5-3.5s1.6-3.5 3.5-3.5c1 0 1.8.4 2.5 1 .3.3.7.5 1.2.5 1 0 1.7-.8 1.7-1.7 0-.7-.4-1.3-1.1-1.6-1.1-.7-2-1.9-2-3.3 0-1.9 1.5-3.4 3.4-3.4.4 0 .8.1 1.2.2.1.1.3.1.5.1.8 0 1.5-.7 1.5-1.5s-.7-1.5-1.5-1.5c-.3 0-.6.1-.9.3-.4.3-1 .5-1.5.5-1.4 0-2.5-1.1-2.5-2.5s1.1-2.5 2.5-2.5c.5 0 1 .2 1.4.5.2.2.6.3.9.3.8 0 1.5-.7 1.5-1.5s-.7-1.5-1.5-1.5h-.4c-.8 0-1.5-.7-1.5-1.5s.7-1.5 1.5-1.5c7.4 0 11.8 6.5 11.1 11.8-.1.4-.2.8-.2 1.1 0 .3.1.5.2.7l2.1 3.8c.1.2.2.5.2.7-.1.9-.6 1.5-1.3 1.6z" style="fill:#fff"/></svg>