<svg xmlns="http://www.w3.org/2000/svg" viewBox="0 0 71.3 71.1" style="enable-background:new 0 0 71.3 71.1" xml:space="preserve"><path d="M60 71.1H11.3C5.1 71.1 0 66 0 59.8V11.3C0 5.1 5.1 0 11.3 0H60c6.3 0 11.3 5.1 11.3 11.3v48.4c0 6.3-5 11.4-11.3 11.4z" style="fill:#718b91"/><path d="M46.3 14.6c-1.7-1.7-3.8-2.5-6.2-2.5H17.5v47.1h9.6V42.4h13c2.4 0 4.5-.9 6.2-2.6 1.7-1.7 2.5-3.8 2.5-6.1v-13c0-2.4-.8-4.5-2.5-6.1zm-6.9 8.2v8.9c0 .3-.1.6-.4.9-.3.3-.5.4-.9.4h-11V21.4H38c.4 0 .7.1.9.4.4.3.5.6.5 1z" style="fill:#fff"/></svg>