<?xml version="1.0" encoding="utf-8"?>
<!-- Generator: Adobe Illustrator 26.0.1, SVG Export Plug-In . SVG Version: 6.00 Build 0)  -->
<svg version="1.1" id="Layer_1" xmlns="http://www.w3.org/2000/svg" xmlns:xlink="http://www.w3.org/1999/xlink" x="0px" y="0px"
	 viewBox="0 0 52.2 52.2" style="enable-background:new 0 0 52.2 52.2;" xml:space="preserve">
<style type="text/css">
	.st0{fill:#FFFFFF;}
</style>
<g>
	<path class="st0" d="M35.2,36.4c-0.4,0.5,0.4,1.4,0.9,1.4C37.3,37.6,36.1,35.8,35.2,36.4z"/>
	<path class="st0" d="M36.2,35.5c-0.3-0.6-2.6,0-1.4,0.4C35.3,35.7,36.3,36.4,36.2,35.5z"/>
	<path class="st0" d="M37.4,37c-0.7,0-1.1,1.4-0.1,1.3C37.8,38.4,38.3,37,37.4,37z"/>
	<path class="st0" d="M37.7,36.2c-0.1,0.4,0.1,0.8,0.5,0.8C39.3,36.8,38.2,34.8,37.7,36.2z"/>
	<path class="st0" d="M37.3,36.6c0.8-0.8-0.4-1.6-0.9-0.6C36.2,36.3,36.9,37.1,37.3,36.6z"/>
	<path class="st0" d="M36,22.4c-1.9,1.3-4.6,4.3-6,4.1c-1.4-0.2-1.4-0.6-1.6-0.9c-0.2-0.3,0.3-0.5,0.1-0.7c-1.9,0.4,0.5,2.4,1.5,2.3
		c0.8,0,1.5-0.6,2.2-0.9S35.9,23.6,36,22.4z"/>
	<path class="st0" d="M33.2,35c0.2,0.2,0.4,0.3,0.6,0.5C35.4,35.3,32.2,33.6,33.2,35z"/>
	<path class="st0" d="M34,35.8c-0.6-0.3-0.6,0.4,0,0.8C35,37.4,35.1,36.4,34,35.8z"/>
	<path class="st0" d="M39,36.9c0.6,0.8,0.8-0.4,0.7-0.8C39.3,35.3,38.6,36.4,39,36.9z"/>
	<path class="st0" d="M36.7,27c0.8,1.2,1.4,1.2,2.2,0.3c0.8-1,1.5-3.2,1-5.7C38.5,19.8,35.5,24.9,36.7,27z"/>
	<path class="st0" d="M26.1,0C11.7,0,0,11.7,0,26.1c0,14.4,11.7,26.1,26.1,26.1c14.4,0,26.1-11.7,26.1-26.1C52.2,11.7,40.5,0,26.1,0
		z M40.6,30.7c-0.1,0.4-0.5,1.5-0.4,2.1c0.1,0.6,0.6,2.3,0.5,2.7c0,0,0.2,0.9,0.2,1.4c0,0.1,0,0.6-0.1,0.7c0.1,0.5-0.2,1-0.5,1.4
		c-1.1,1.3,0.4,2.8,0,4.2c-3.1,3.8-8.4-3-11.6-4.4c-2.8-0.8-2-5.2-3-7.1c-0.4-1.1-1.5-2.9-0.7-3.8c2.2-1.2,1,2.7,3.7,2.3
		c1,0,1.8-1,2.5-1.5c0.2-0.2,0.6-0.1,0.7,0.2c0.8,1.8-1,4.1,0.4,6.1c0.3,0.5,0.7-6.4,0.1-6.9c-1.2-0.8-4,3.1-5,0.1
		c-1-2.8-4.1,0.2-5.3,1.3c-0.8,0.9-1.3,2.6-3.1,2.5c-0.6,0-1.8-1-2.7-1.7c-0.9-0.8-1.9-1.3-3-1.5c-4.3-1.1-6.6-4.1-6.2-9
		C8.9,4.8,30.6,2.7,38.6,12c3.5,3.5,1.3,8.8,3.3,13C42.3,26.7,37.5,29.3,40.6,30.7z"/>
	<path class="st0" d="M39.1,38.8c0.5,0.4,0.9-1.2,0.7-1.3C39.4,37.3,38.8,38.4,39.1,38.8z"/>
	<path class="st0" d="M38.8,37.2c-0.7-0.1-1.1,1.3-0.3,1.4C38.9,38.7,39.4,37.3,38.8,37.2z"/>
	<path class="st0" d="M40.4,37.5c0.6-0.6-0.4-2-0.5-0.6C39.8,37.3,40.3,37.3,40.4,37.5z"/>
	<path class="st0" d="M39.7,39.1c0.6,0.1,0.6-1,0.8-1.3C40,37.9,39.8,38.6,39.7,39.1z"/>
</g>
</svg>
