<svg xmlns="http://www.w3.org/2000/svg" viewBox="0 0 52.2 52.2" style="enable-background:new 0 0 52.2 52.2" xml:space="preserve"><path d="M39.5 40.7c-.2-.4-.4-.7-.6-.9h-.3c-1.3 0-2.3-1.1-2.3-2.5s1-2.5 2.3-2.5c.4 0 .7.1 1 .3.3 0 .5-.2.8-.4.1-.1.2-.2.3-.2.4-.4.9-.7 1.5-.7 1.2 0 2.2 1.1 2.2 2.4 0 .8-.4 1.5-1 2-.3.6-.2 1.2.1 1.8.4.9 1 2.3 1.6 3.6 4.2-4.6 6.8-10.8 6.8-17.6.3-14.3-11.4-26-25.8-26S0 11.7 0 26.1c0 7.1 2.9 13.6 7.5 18.3.7-1.6 1.6-3.4 2-4.3.3-.6.4-1.2.1-1.8-.6-.4-1-1.2-1-2 0-1.3 1-2.4 2.2-2.4.6 0 1.1.3 1.5.7.1.1.2.1.3.2.2.2.5.3.8.4.3-.2.7-.3 1-.3 1.3 0 2.3 1.1 2.3 2.5s-1 2.5-2.3 2.5h-.3l-.6.9c-.7 1.5-2.2 4.5-3.1 6.3 4.3 3.2 9.7 5.1 15.5 5.1 6.1 0 11.8-2.1 16.2-5.7-.6-1.7-1.8-4.3-2.6-5.8zM21.4 9.6c.1-.2.1-.4.2-.6.2-.3.2-.7 0-1 0-.1-.1-.2-.1-.2 0-.5.2-.8.6-.8.2 0 .4 0 .5.1.4.2.9.5 1.3.8.6.4 1.2.8 1.9 1.2.3.2.5.2.8.2h.1c.3 0 .5-.1.8-.2.6-.4 1.2-.8 1.9-1.2.4-.3.9-.5 1.3-.8.1-.1.3-.1.5-.1.3 0 .6.3.5.7 0 .1-.1.2-.1.2-.2.4-.1.7 0 1 .1.2.2.4.2.6.2.6-.2 1.4-1 1.3h-.7c-.5 0-.8.3-.8.8v.6c0 .7-.2 1.2-.8 1.5-.6.4-1.3.6-1.9.6-.7 0-1.3-.2-1.9-.6-.5-.3-.8-.9-.8-1.5v-.6c0-.5-.3-.8-.8-.8h-.7c-.8.1-1.2-.6-1-1.2zm-.4 6.3c0-.2.1-.5.2-.7.2-.4.3-.8.1-1.3-.2-.5.1-.9.6-.8.4.1.8.3 1.2.6.7.5 1.4.9 2.2 1.4.4.3.9.4 1.3.4.5 0 .9-.1 1.3-.4.7-.5 1.4-.9 2.2-1.4.4-.3.8-.5 1.2-.6.5-.1.8.4.6.8-.2.4-.2.9.1 1.3.1.2.2.5.2.7.1.6-.4 1.2-1.1 1.1-.2 0-.3-.1-.5-.1-.6-.1-1.1.3-1.1 1v.3c0 .4 0 .8-.3 1.1-.3.4-.6.7-1 .8-.9.3-2.4.3-3.3 0-.4-.1-.7-.4-1-.8-.2-.3-.3-.7-.3-1.1v-.3c0-.7-.5-1.1-1.1-1-.2 0-.3.1-.5.1-.6.1-1.1-.5-1-1.1zm13.8 20.3c-.2-.1-.4-.2-.5-.3-.4-.2-.9-.2-1.3 0-.3.2-.6.3-.9.5-.7.5-1.4.8-2.3 1-.3.1-.6.1-1 .1-.2 0-.4 0-.7-.1-.4-.1-.7-.3-.9-.6-.2-.3-.3-.5-.2-.9.1-.8.6-1.3 1.2-1.6.5-.2.9-.3 1.4-.5 1.2-.3 2.3-.8 3.3-1.7.3-.3.5-.6.7-.9.2-.4.3-.9.3-1.3-.1-.9-.3-1.7-.6-2.6 0-.1-.1-.3-.2-.4-.5-.7-.9-.9-1.6-.5-.3.1-.6.3-.9.5l-1.5.9c-.3.2-.7.3-1 .4-.9.3-2.3.3-3.1 0-.4-.1-.7-.2-1-.4l-1.5-.9c-.3-.2-.6-.3-.9-.5-.7-.3-1.2-.2-1.6.5-.1.1-.1.2-.2.4-.3.8-.6 1.7-.6 2.6 0 .5.1.9.3 1.3.2.3.5.6.7.9.9.9 2.1 1.4 3.3 1.7.5.1 1 .3 1.4.5.7.3 1.1.8 1.2 1.6.1.3 0 .6-.2.9-.2.3-.6.6-.9.6-.2 0-.4 0-.7.1-.3 0-.6 0-1-.1-.8-.2-1.5-.5-2.3-1-.3-.2-.6-.3-.9-.5-.4-.2-.9-.2-1.3 0-.2.1-.4.2-.5.3-.4.2-.8.1-1.1-.3-.2-.3-.4-.5-.6-.8-.5-.8-1.2-1.3-2.1-1.5-.8-.1-1.7-.3-2.5-.3-.2 0-.4 0-.6-.1-.1 0-.2-.1-.3-.1-.3-.3-.4-.6-.1-.9.2-.2.4-.3.6-.4.3-.1.6-.2.9-.2.1 0 .3-.1.4-.2.2-.1.2-.3 0-.5-.1-.1-.3-.2-.4-.2-.6-.2-1.1-.3-1.7-.5-.6-.1-1.1-.4-1.5-.8-.3-.4-.7-.8-1-1.4-.5-1-.6-2 0-3.1.2-.4.5-.9.8-1.2 1.2-1.3 2.5-2.7 3.7-4 1.1-1 2.2-1.9 3.6-2.4 1.2-.4 2.4-.4 3.5.3 1.4 1 2.7 2 4 3.1.7.6 1.5 1 2.4 1.1h.6c.9-.2 1.7-.5 2.4-1.1 1.3-1.1 2.6-2.1 4-3.1 1.1-.8 2.3-.8 3.5-.3 1.4.5 2.6 1.4 3.6 2.4 1.3 1.3 2.5 2.6 3.7 4 .3.4.6.8.8 1.2.5 1 .5 2 0 3.1-.3.6-.7 1-1.1 1.4-.4.4-1 .7-1.5.8-.6.1-1.1.3-1.7.5-.2 0-.3.1-.4.2-.2.2-.2.3 0 .5.1.1.3.1.4.2.3.1.6.1.9.2.2.1.4.2.6.4.3.3.3.7-.1.9-.1.1-.2.1-.3.1-.2 0-.4.1-.6.1-.9 0-1.7.2-2.5.3-.9.2-1.6.6-2.1 1.5-.2.3-.4.5-.6.8-.3.4-.7.5-1.1.3z" style="fill:#fff"/></svg>