<svg version="1.1" id="Layer_1" xmlns="http://www.w3.org/2000/svg" x="0" y="0" viewBox="0 0 52.2 52.2" style="enable-background:new 0 0 52.2 52.2" xml:space="preserve"><style>.st0{fill:#fff}</style><path class="st0" d="M35.2 36.4c-.4.5.4 1.4.9 1.4 1.2-.2 0-2-.9-1.4zm1-.9c-.3-.6-2.6 0-1.4.4.5-.2 1.5.5 1.4-.4z"/><path class="st0" d="M37.4 37c-.7 0-1.1 1.4-.1 1.3.5.1 1-1.3.1-1.3zm.3-.8c-.1.4.1.8.5.8 1.1-.2 0-2.2-.5-.8zm-.4.4c.8-.8-.4-1.6-.9-.6-.2.3.5 1.1.9.6zM36 22.4c-1.9 1.3-4.6 4.3-6 4.1-1.4-.2-1.4-.6-1.6-.9-.2-.3.3-.5.1-.7-1.9.4.5 2.4 1.5 2.3.8 0 1.5-.6 2.2-.9s3.7-2.7 3.8-3.9zM33.2 35c.2.2.4.3.6.5 1.6-.2-1.6-1.9-.6-.5zm.8.8c-.6-.3-.6.4 0 .8 1 .8 1.1-.2 0-.8zm5 1.1c.6.8.8-.4.7-.8-.4-.8-1.1.3-.7.8zM36.7 27c.8 1.2 1.4 1.2 2.2.3.8-1 1.5-3.2 1-5.7-1.4-1.8-4.4 3.3-3.2 5.4z"/><path class="st0" d="M26.1 0C11.7 0 0 11.7 0 26.1c0 14.4 11.7 26.1 26.1 26.1 14.4 0 26.1-11.7 26.1-26.1C52.2 11.7 40.5 0 26.1 0zm14.5 30.7c-.1.4-.5 1.5-.4 2.1.1.6.6 2.3.5 2.7 0 0 .2.9.2 1.4 0 .1 0 .6-.1.7.1.5-.2 1-.5 1.4-1.1 1.3.4 2.8 0 4.2-3.1 3.8-8.4-3-11.6-4.4-2.8-.8-2-5.2-3-7.1-.4-1.1-1.5-2.9-.7-3.8 2.2-1.2 1 2.7 3.7 2.3 1 0 1.8-1 2.5-1.5.2-.2.6-.1.7.2.8 1.8-1 4.1.4 6.1.3.5.7-6.4.1-6.9-1.2-.8-4 3.1-5 .1-1-2.8-4.1.2-5.3 1.3-.8.9-1.3 2.6-3.1 2.5-.6 0-1.8-1-2.7-1.7-.9-.8-1.9-1.3-3-1.5-4.3-1.1-6.6-4.1-6.2-9C8.9 4.8 30.6 2.7 38.6 12c3.5 3.5 1.3 8.8 3.3 13 .4 1.7-4.4 4.3-1.3 5.7z"/><path class="st0" d="M39.1 38.8c.5.4.9-1.2.7-1.3-.4-.2-1 .9-.7 1.3z"/><path class="st0" d="M38.8 37.2c-.7-.1-1.1 1.3-.3 1.4.4.1.9-1.3.3-1.4zm1.6.3c.6-.6-.4-2-.5-.6-.1.4.4.4.5.6zm-.7 1.6c.6.1.6-1 .8-1.3-.5.1-.7.8-.8 1.3z"/></svg>