<svg xmlns="http://www.w3.org/2000/svg" viewBox="0 0 52.2 52.2" style="enable-background:new 0 0 52.2 52.2" xml:space="preserve"><path d="m38.8 3.5-3.3 10.2c-.6 1.9-.5 4 .5 5.7 1 2 1.2 4.3.2 6.5-1.7 3.8-6.1 5.6-9.9 3.9-1.9-.8-3.2-2.3-4-4-1.1.1-2.4 0-3.5-.5-3.5-1.5-5.3-5.5-3.8-9.1.9-2.1 2.6-3.5 4.6-4 2-.5 3.7-1.9 4.6-3.7L28.6.2C27.8.1 26.9.1 26 .1 11.7.2 0 11.9 0 26.3c0 12.3 8.5 22.6 19.9 25.3L19 41.5c-.2-2-1.1-3.8-2.7-5.1-1.7-1.4-2.8-3.5-2.8-5.9 0-.9.2-1.8.5-2.6 1.6 1.7 3.9 2.8 6.4 2.8h.1c1.1 0 2.1-.2 3.1-.6 1.6 1.2 3.5 1.8 5.5 1.8h.1c2.8 0 5.3-1.2 7.1-3.2.3.8.5 1.6.5 2.5 0 2.2-1 4.2-2.6 5.5-1.6 1.3-2.6 3.2-2.8 5.2L30.5 52c12.3-2.1 21.6-12.8 21.6-25.7.1-9.8-5.3-18.3-13.3-22.8zM15 26.9c-1.4-1.2-1.7-2.2-1.1-2.7.5-.5 1.4-.1 1.8.5.8 1.1 2.7 3.8 6.2 3.8.1 0-3.7 1.3-6.9-1.6z" style="fill:#fff"/></svg>