<svg xmlns="http://www.w3.org/2000/svg" viewBox="0 0 52.2 52.2" style="enable-background:new 0 0 52.2 52.2" xml:space="preserve"><path d="M26.1 0C11.7 0 0 11.7 0 26.1c0 14.4 11.7 26.1 26.1 26.1s26.1-11.7 26.1-26.1C52.2 11.7 40.5 0 26.1 0zm-9.2 9.8 1-.1c.3 0 .6.1.8.2.3.2.7.3 1.1.1.3-.1.5-.4.6-.8l.1-.2c.3-.3.4-.8.3-1.2l-.1-.5c-.1-.4.1-.8.5-.9.3-.2.7-.1 1 .2l.4.5c.2.2.4.4.6.5.4.3.9-.1.8-.6l1.2-.5.8.2c.5.1 1.1 0 1.6-.2L33 4l2.4 5.2c.5 1.1.5 2.4.1 3.5-.8 1.9-2.7 3-4.7 2.8l-3.8-.4c-.6-.1-1.1-.4-1.5-.9l-.9-1.4c-.4-.6-1.1-.8-1.7-.5l-1 .4c-.2.1-.4.3-.4.6 0 1.1-.9 2-2 1.9-1.4 0-2.7-1-2.9-2.4l-.4-2.1c-.2-.4.2-.9.7-.9zm17.2 34c-.1 1.2-.7 2.3-1.6 3.1-1.6 1.3-3.8 1.4-5.5.2L23.9 45c-.5-.3-.8-.9-.9-1.5l-.1-1.7c-.1-.7-.6-1.2-1.3-1.3l-1.1-.1c-.3 0-.5.1-.6.3-.5.9-1.7 1.3-2.7.8-1.2-.7-1.8-2.2-1.4-3.5l.6-2c.1-.5.7-.7 1.1-.5l.9.4c.3.1.5.3.6.6.2.4.5.6.9.6s.7-.1.9-.4l.2-.2c.4-.1.7-.5.9-.9l.1-.5c.1-.4.5-.6.8-.6.4 0 .7.3.7.7l.1.6c0 .3.1.5.3.8.2.4.9.3 1-.1l1.3.1.6.5c.4.4 1 .6 1.5.6l6 .4-.2 5.7zm1.4-8.3c-1.3 1.5-3.5 2-5.4 1.1L26.7 35c-.5-.3-.9-.7-1.1-1.3l-.4-1.7c-.2-.7-.8-1.1-1.4-1.1l-1.2.1c-.3 0-.5.2-.6.4-.4 1-1.5 1.5-2.5 1.2-1.3-.5-2.2-1.8-2-3.2l.3-2.1c.1-.5.6-.8 1-.7l1 .3c.3.1.5.3.7.5.2.3.6.5 1 .5s.7-.2.8-.5l.2-.3c.4-.2.7-.6.7-1l.1-.5c0-.4.4-.7.7-.7.4 0 .7.2.8.5l.2.6c.1.3.2.5.4.7.3.4.9.2 1-.3l1.3-.1.7.4c.5.3 1 .4 1.6.4l6-.5.5 5.7c.2 1.1-.2 2.3-1 3.2zm.8-11.3c-1.2 1.7-3.3 2.4-5.2 1.8l-3.6-1.2c-.6-.2-1-.6-1.2-1.2l-.7-1.6c-.2-.6-.9-1-1.6-.9l-1 .2c-.3 0-.5.2-.5.5-.2 1.1-1.3 1.7-2.3 1.5-1.4-.3-2.4-1.6-2.4-3v-2.1c0-.5.5-.9.9-.8l1 .2c.3 0 .6.2.8.4.3.3.7.4 1.1.3.3-.1.6-.3.8-.6l.1-.3c.4-.2.6-.7.6-1.1v-.5c0-.4.3-.7.6-.8.4-.1.7.1.9.4l.3.6c.1.2.3.5.5.7.3.3.9.1.9-.4l1.3-.3.7.3c.5.2 1.1.3 1.6.2l5.9-1.3 1.2 5.6c.2 1.2 0 2.4-.7 3.4z" style="fill:#fff"/></svg>