<?xml version="1.0" encoding="utf-8"?>
<!-- Generator: Adobe Illustrator 26.0.1, SVG Export Plug-In . SVG Version: 6.00 Build 0)  -->
<svg version="1.1" id="Layer_1" xmlns="http://www.w3.org/2000/svg" xmlns:xlink="http://www.w3.org/1999/xlink" x="0px" y="0px"
	 viewBox="0 0 52.2 52.2" style="enable-background:new 0 0 52.2 52.2;" xml:space="preserve">
<style type="text/css">
	.st0{fill:#FFFFFF;}
</style>
<path class="st0" d="M26.1,0C11.7,0,0,11.7,0,26.1c0,14.4,11.7,26.1,26.1,26.1s26.1-11.7,26.1-26.1C52.2,11.7,40.5,0,26.1,0z
	 M16.9,9.8l1-0.1c0.3,0,0.6,0.1,0.8,0.2c0.3,0.2,0.7,0.3,1.1,0.1c0.3-0.1,0.5-0.4,0.6-0.8L20.5,9c0.3-0.3,0.4-0.8,0.3-1.2l-0.1-0.5
	c-0.1-0.4,0.1-0.8,0.5-0.9c0.3-0.2,0.7-0.1,1,0.2l0.4,0.5c0.2,0.2,0.4,0.4,0.6,0.5c0.4,0.3,0.9-0.1,0.8-0.6l1.2-0.5L26,6.7
	c0.5,0.1,1.1,0,1.6-0.2L33,4l2.4,5.2c0.5,1.1,0.5,2.4,0.1,3.5c-0.8,1.9-2.7,3-4.7,2.8L27,15.1c-0.6-0.1-1.1-0.4-1.5-0.9l-0.9-1.4
	c-0.4-0.6-1.1-0.8-1.7-0.5l-1,0.4c-0.2,0.1-0.4,0.3-0.4,0.6c0,1.1-0.9,2-2,1.9c-1.4,0-2.7-1-2.9-2.4l-0.4-2.1
	C16,10.3,16.4,9.8,16.9,9.8z M34.1,43.8c-0.1,1.2-0.7,2.3-1.6,3.1c-1.6,1.3-3.8,1.4-5.5,0.2L23.9,45c-0.5-0.3-0.8-0.9-0.9-1.5
	l-0.1-1.7c-0.1-0.7-0.6-1.2-1.3-1.3l-1.1-0.1c-0.3,0-0.5,0.1-0.6,0.3c-0.5,0.9-1.7,1.3-2.7,0.8c-1.2-0.7-1.8-2.2-1.4-3.5l0.6-2
	c0.1-0.5,0.7-0.7,1.1-0.5l0.9,0.4c0.3,0.1,0.5,0.3,0.6,0.6c0.2,0.4,0.5,0.6,0.9,0.6c0.4,0,0.7-0.1,0.9-0.4l0.2-0.2
	c0.4-0.1,0.7-0.5,0.9-0.9l0.1-0.5c0.1-0.4,0.5-0.6,0.8-0.6c0.4,0,0.7,0.3,0.7,0.7l0.1,0.6c0,0.3,0.1,0.5,0.3,0.8
	c0.2,0.4,0.9,0.3,1-0.1l1.3,0.1l0.6,0.5c0.4,0.4,1,0.6,1.5,0.6l6,0.4L34.1,43.8z M35.5,35.5c-1.3,1.5-3.5,2-5.4,1.1L26.7,35
	c-0.5-0.3-0.9-0.7-1.1-1.3L25.2,32c-0.2-0.7-0.8-1.1-1.4-1.1L22.6,31c-0.3,0-0.5,0.2-0.6,0.4c-0.4,1-1.5,1.5-2.5,1.2
	c-1.3-0.5-2.2-1.8-2-3.2l0.3-2.1c0.1-0.5,0.6-0.8,1-0.7l1,0.3c0.3,0.1,0.5,0.3,0.7,0.5c0.2,0.3,0.6,0.5,1,0.5c0.4,0,0.7-0.2,0.8-0.5
	l0.2-0.3c0.4-0.2,0.7-0.6,0.7-1l0.1-0.5c0-0.4,0.4-0.7,0.7-0.7c0.4,0,0.7,0.2,0.8,0.5l0.2,0.6c0.1,0.3,0.2,0.5,0.4,0.7
	c0.3,0.4,0.9,0.2,1-0.3l1.3-0.1l0.7,0.4c0.5,0.3,1,0.4,1.6,0.4l6-0.5l0.5,5.7C36.7,33.4,36.3,34.6,35.5,35.5z M36.3,24.2
	c-1.2,1.7-3.3,2.4-5.2,1.8l-3.6-1.2c-0.6-0.2-1-0.6-1.2-1.2L25.6,22c-0.2-0.6-0.9-1-1.6-0.9L23,21.3c-0.3,0-0.5,0.2-0.5,0.5
	c-0.2,1.1-1.3,1.7-2.3,1.5c-1.4-0.3-2.4-1.6-2.4-3l0-2.1c0-0.5,0.5-0.9,0.9-0.8l1,0.2c0.3,0,0.6,0.2,0.8,0.4
	c0.3,0.3,0.7,0.4,1.1,0.3c0.3-0.1,0.6-0.3,0.8-0.6l0.1-0.3c0.4-0.2,0.6-0.7,0.6-1.1l0-0.5c0-0.4,0.3-0.7,0.6-0.8
	c0.4-0.1,0.7,0.1,0.9,0.4l0.3,0.6c0.1,0.2,0.3,0.5,0.5,0.7c0.3,0.3,0.9,0.1,0.9-0.4l1.3-0.3l0.7,0.3c0.5,0.2,1.1,0.3,1.6,0.2
	l5.9-1.3l1.2,5.6C37.2,22,37,23.2,36.3,24.2z"/>
</svg>
