<?xml version="1.0" encoding="utf-8"?>
<!-- Generator: Adobe Illustrator 26.0.1, SVG Export Plug-In . SVG Version: 6.00 Build 0)  -->
<svg version="1.1" id="Layer_1" xmlns="http://www.w3.org/2000/svg" xmlns:xlink="http://www.w3.org/1999/xlink" x="0px" y="0px"
	 viewBox="0 0 52.2 52.2" style="enable-background:new 0 0 52.2 52.2;" xml:space="preserve">
<style type="text/css">
	.st0{fill:#FFFFFF;}
</style>
<path class="st0" d="M38.8,3.5l-3.3,10.2c-0.6,1.9-0.5,4,0.5,5.7c1,2,1.2,4.3,0.2,6.5c-1.7,3.8-6.1,5.6-9.9,3.9
	c-1.9-0.8-3.2-2.3-4-4c-1.1,0.1-2.4,0-3.5-0.5c-3.5-1.5-5.3-5.5-3.8-9.1c0.9-2.1,2.6-3.5,4.6-4c2-0.5,3.7-1.9,4.6-3.7l4.4-8.3
	c-0.8-0.1-1.7-0.1-2.6-0.1C11.7,0.2,0,11.9,0,26.3c0,12.3,8.5,22.6,19.9,25.3L19,41.5c-0.2-2-1.1-3.8-2.7-5.1
	c-1.7-1.4-2.8-3.5-2.8-5.9c0-0.9,0.2-1.8,0.5-2.6c1.6,1.7,3.9,2.8,6.4,2.8c0,0,0.1,0,0.1,0c1.1,0,2.1-0.2,3.1-0.6
	c1.6,1.2,3.5,1.8,5.5,1.8c0,0,0.1,0,0.1,0c2.8,0,5.3-1.2,7.1-3.2c0.3,0.8,0.5,1.6,0.5,2.5c0,2.2-1,4.2-2.6,5.5
	c-1.6,1.3-2.6,3.2-2.8,5.2L30.5,52c12.3-2.1,21.6-12.8,21.6-25.7C52.2,16.5,46.8,8,38.8,3.5z M15,26.9c-1.4-1.2-1.7-2.2-1.1-2.7
	c0.5-0.5,1.4-0.1,1.8,0.5c0.8,1.1,2.7,3.8,6.2,3.8C22,28.5,18.2,29.8,15,26.9z"/>
</svg>
