<?xml version="1.0" encoding="utf-8"?>
<!-- Generator: Adobe Illustrator 26.0.1, SVG Export Plug-In . SVG Version: 6.00 Build 0)  -->
<svg version="1.1" id="Layer_1" xmlns="http://www.w3.org/2000/svg" xmlns:xlink="http://www.w3.org/1999/xlink" x="0px" y="0px"
	 viewBox="0 0 52.2 52.2" style="enable-background:new 0 0 52.2 52.2;" xml:space="preserve">
<style type="text/css">
	.st0{fill:#FFFFFF;}
</style>
<path class="st0" d="M39.5,40.7c-0.2-0.4-0.4-0.7-0.6-0.9c-0.1,0-0.2,0-0.3,0c-1.3,0-2.3-1.1-2.3-2.5c0-1.4,1-2.5,2.3-2.5
	c0.4,0,0.7,0.1,1,0.3c0.3,0,0.5-0.2,0.8-0.4c0.1-0.1,0.2-0.2,0.3-0.2c0.4-0.4,0.9-0.7,1.5-0.7c1.2,0,2.2,1.1,2.2,2.4
	c0,0.8-0.4,1.5-1,2c-0.3,0.6-0.2,1.2,0.1,1.8c0.4,0.9,1,2.3,1.6,3.6c4.2-4.6,6.8-10.8,6.8-17.6C52.2,11.7,40.5,0,26.1,0
	C11.7,0,0,11.7,0,26.1c0,7.1,2.9,13.6,7.5,18.3c0.7-1.6,1.6-3.4,2-4.3c0.3-0.6,0.4-1.2,0.1-1.8c-0.6-0.4-1-1.2-1-2
	c0-1.3,1-2.4,2.2-2.4c0.6,0,1.1,0.3,1.5,0.7c0.1,0.1,0.2,0.1,0.3,0.2c0.2,0.2,0.5,0.3,0.8,0.4c0.3-0.2,0.7-0.3,1-0.3
	c1.3,0,2.3,1.1,2.3,2.5c0,1.4-1,2.5-2.3,2.5c-0.1,0-0.2,0-0.3,0c-0.2,0.3-0.4,0.6-0.6,0.9c-0.7,1.5-2.2,4.5-3.1,6.3
	c4.3,3.2,9.7,5.1,15.5,5.1c6.1,0,11.8-2.1,16.2-5.7C41.5,44.8,40.3,42.2,39.5,40.7z M21.4,9.6c0.1-0.2,0.1-0.4,0.2-0.6
	c0.2-0.3,0.2-0.7,0-1c0-0.1-0.1-0.2-0.1-0.2C21.5,7.3,21.7,7,22.1,7c0.2,0,0.4,0,0.5,0.1c0.4,0.2,0.9,0.5,1.3,0.8
	c0.6,0.4,1.2,0.8,1.9,1.2c0.3,0.2,0.5,0.2,0.8,0.2c0,0,0.1,0,0.1,0c0.3,0,0.5-0.1,0.8-0.2c0.6-0.4,1.2-0.8,1.9-1.2
	c0.4-0.3,0.9-0.5,1.3-0.8C30.8,7,31,7,31.2,7c0.3,0,0.6,0.3,0.5,0.7c0,0.1-0.1,0.2-0.1,0.2c-0.2,0.4-0.1,0.7,0,1
	c0.1,0.2,0.2,0.4,0.2,0.6c0.2,0.6-0.2,1.4-1,1.3c-0.2,0-0.4,0-0.7,0c-0.5,0-0.8,0.3-0.8,0.8c0,0.2,0,0.4,0,0.6
	c0,0.7-0.2,1.2-0.8,1.5c-0.6,0.4-1.3,0.6-1.9,0.6c-0.7,0-1.3-0.2-1.9-0.6c-0.5-0.3-0.8-0.9-0.8-1.5c0-0.2,0-0.4,0-0.6
	c0-0.5-0.3-0.8-0.8-0.8c-0.2,0-0.4,0-0.7,0C21.6,10.9,21.2,10.2,21.4,9.6z M21,15.9c0-0.2,0.1-0.5,0.2-0.7c0.2-0.4,0.3-0.8,0.1-1.3
	c-0.2-0.5,0.1-0.9,0.6-0.8c0.4,0.1,0.8,0.3,1.2,0.6c0.7,0.5,1.4,0.9,2.2,1.4c0.4,0.3,0.9,0.4,1.3,0.4c0.5,0,0.9-0.1,1.3-0.4
	c0.7-0.5,1.4-0.9,2.2-1.4c0.4-0.3,0.8-0.5,1.2-0.6c0.5-0.1,0.8,0.4,0.6,0.8c-0.2,0.4-0.2,0.9,0.1,1.3c0.1,0.2,0.2,0.5,0.2,0.7
	c0.1,0.6-0.4,1.2-1.1,1.1c-0.2,0-0.3-0.1-0.5-0.1c-0.6-0.1-1.1,0.3-1.1,1c0,0.1,0,0.1,0,0.3c0,0.4,0,0.8-0.3,1.1
	c-0.3,0.4-0.6,0.7-1,0.8c0,0,0,0,0,0c-0.9,0.3-2.4,0.3-3.3,0c0,0,0,0,0,0c-0.4-0.1-0.7-0.4-1-0.8c-0.2-0.3-0.3-0.7-0.3-1.1
	c0-0.1,0-0.2,0-0.3c0-0.7-0.5-1.1-1.1-1c-0.2,0-0.3,0.1-0.5,0.1C21.4,17.1,20.9,16.5,21,15.9z M34.8,36.2c-0.2-0.1-0.4-0.2-0.5-0.3
	c-0.4-0.2-0.9-0.2-1.3,0c-0.3,0.2-0.6,0.3-0.9,0.5c-0.7,0.5-1.4,0.8-2.3,1c-0.3,0.1-0.6,0.1-1,0.1c-0.2,0-0.4,0-0.7-0.1
	c-0.4-0.1-0.7-0.3-0.9-0.6c-0.2-0.3-0.3-0.5-0.2-0.9c0.1-0.8,0.6-1.3,1.2-1.6c0.5-0.2,0.9-0.3,1.4-0.5c1.2-0.3,2.3-0.8,3.3-1.7
	c0.3-0.3,0.5-0.6,0.7-0.9c0.2-0.4,0.3-0.9,0.3-1.3c-0.1-0.9-0.3-1.7-0.6-2.6c0-0.1-0.1-0.3-0.2-0.4c-0.5-0.7-0.9-0.9-1.6-0.5
	c-0.3,0.1-0.6,0.3-0.9,0.5c-0.5,0.3-1,0.6-1.5,0.9c-0.3,0.2-0.7,0.3-1,0.4c-0.9,0.3-2.3,0.3-3.1,0c-0.4-0.1-0.7-0.2-1-0.4
	c-0.5-0.3-1-0.6-1.5-0.9c-0.3-0.2-0.6-0.3-0.9-0.5c-0.7-0.3-1.2-0.2-1.6,0.5c-0.1,0.1-0.1,0.2-0.2,0.4c-0.3,0.8-0.6,1.7-0.6,2.6
	c0,0.5,0.1,0.9,0.3,1.3c0.2,0.3,0.5,0.6,0.7,0.9c0.9,0.9,2.1,1.4,3.3,1.7c0.5,0.1,1,0.3,1.4,0.5c0.7,0.3,1.1,0.8,1.2,1.6
	c0.1,0.3,0,0.6-0.2,0.9c-0.2,0.3-0.6,0.6-0.9,0.6c-0.2,0-0.4,0-0.7,0.1c-0.3,0-0.6,0-1-0.1c-0.8-0.2-1.5-0.5-2.3-1
	c-0.3-0.2-0.6-0.3-0.9-0.5c-0.4-0.2-0.9-0.2-1.3,0c-0.2,0.1-0.4,0.2-0.5,0.3c-0.4,0.2-0.8,0.1-1.1-0.3c-0.2-0.3-0.4-0.5-0.6-0.8
	c-0.5-0.8-1.2-1.3-2.1-1.5c-0.8-0.1-1.7-0.3-2.5-0.3c-0.2,0-0.4,0-0.6-0.1c-0.1,0-0.2-0.1-0.3-0.1c-0.3-0.3-0.4-0.6-0.1-0.9
	c0.2-0.2,0.4-0.3,0.6-0.4c0.3-0.1,0.6-0.2,0.9-0.2c0.1,0,0.3-0.1,0.4-0.2c0.2-0.1,0.2-0.3,0-0.5c-0.1-0.1-0.3-0.2-0.4-0.2
	c-0.6-0.2-1.1-0.3-1.7-0.5c-0.6-0.1-1.1-0.4-1.5-0.8C9,29,8.6,28.6,8.3,28c-0.5-1-0.6-2,0-3.1c0.2-0.4,0.5-0.9,0.8-1.2
	c1.2-1.3,2.5-2.7,3.7-4c1.1-1,2.2-1.9,3.6-2.4c1.2-0.4,2.4-0.4,3.5,0.3c1.4,1,2.7,2,4,3.1c0.7,0.6,1.5,1,2.4,1.1c0.1,0,0.2,0,0.3,0
	c0.1,0,0.2,0,0.3,0c0.9-0.2,1.7-0.5,2.4-1.1c1.3-1.1,2.6-2.1,4-3.1c1.1-0.8,2.3-0.8,3.5-0.3c1.4,0.5,2.6,1.4,3.6,2.4
	c1.3,1.3,2.5,2.6,3.7,4c0.3,0.4,0.6,0.8,0.8,1.2c0.5,1,0.5,2,0,3.1c-0.3,0.6-0.7,1-1.1,1.4c-0.4,0.4-1,0.7-1.5,0.8
	c-0.6,0.1-1.1,0.3-1.7,0.5c-0.2,0-0.3,0.1-0.4,0.2c-0.2,0.2-0.2,0.3,0,0.5c0.1,0.1,0.3,0.1,0.4,0.2c0.3,0.1,0.6,0.1,0.9,0.2
	c0.2,0.1,0.4,0.2,0.6,0.4c0.3,0.3,0.3,0.7-0.1,0.9c-0.1,0.1-0.2,0.1-0.3,0.1c-0.2,0-0.4,0.1-0.6,0.1c-0.9,0-1.7,0.2-2.5,0.3
	c-0.9,0.2-1.6,0.6-2.1,1.5c-0.2,0.3-0.4,0.5-0.6,0.8C35.6,36.3,35.2,36.4,34.8,36.2z"/>
</svg>
