<svg xmlns="http://www.w3.org/2000/svg" viewBox="0 0 30 30" xml:space="preserve"><path fill="#FFF" d="M25 2H4C2.3 2 1 3.3 1 5v21c0 1.7 1.3 3 3 3h21c1.7 0 3-1.3 3-3V5c0-1.7-1.3-3-3-3zM14.5 23.8c4.6 0 8.3-3.7 8.3-8.3 0-.5-.1-1-.2-1.5H25v10.8c0 .6-.5 1-1 1H5c-.6 0-1-.5-1-1V14h2.3c-.1.5-.2 1-.2 1.5.1 4.6 3.8 8.3 8.4 8.3zm-5.2-8.3c0-2.9 2.3-5.2 5.2-5.2 2.9 0 5.2 2.3 5.2 5.2s-2.3 5.2-5.2 5.2c-2.9 0-5.2-2.4-5.2-5.2zm14.7-6h-2.4c-.6 0-1-.5-1-1V6c0-.6.5-1 1-1H24c.6 0 1 .5 1 1v2.4c0 .6-.5 1.1-1 1.1z"/></svg>