<svg version="1.1" id="Layer_1" xmlns="http://www.w3.org/2000/svg" x="0" y="0" viewBox="0 0 71.3 71.3" style="enable-background:new 0 0 71.3 71.3" xml:space="preserve"><style>.st0{fill:#699f67}</style><path class="st0" d="M60 71.2H11.3C5.1 71.2 0 66.1 0 59.9V11.4C0 5.2 5.1.1 11.3.1H60c6.3 0 11.3 5.1 11.3 11.3v48.4c0 6.3-5.1 11.4-11.3 11.4z"/><circle class="st0" cx="35.7" cy="35.7" r="35.7"/><path d="M19.1 46.3c.5 2 2.3 3.5 4.5 3.5h23.8c2.2 0 4-1.5 4.5-3.5.1-.5.4-1 .8-1.4.2-.2.4-.5.4-.8V31.7c0-.4-.2-.7-.5-.9-.4-.2-.6-.5-.6-.8v-9.2c0-6.9-3.7-12.1-16.5-12.1C22.6 8.7 19 13.8 19 20.8V30c0 .3-.2.6-.5.7-.3.2-.5.5-.5.9V44c0 .3.1.6.4.8.3.4.5.9.7 1.5zm26.7-4c-1.4 0-2.6-1.2-2.6-2.6 0-1.4 1.2-2.6 2.6-2.6 1.4 0 2.6 1.2 2.6 2.6 0 1.4-1.2 2.6-2.6 2.6zm-9.1-23.6c0-1.2 1.1-2 2.2-1.8l6.8 1.3c1.9.4 2.7 1.1 2.7 2.8v5.6c0 1.1-.9 2-2 2h-7.6c-1.2 0-2.1-1-2.1-2.1v-7.8zm-14.2 2.2c0-1.7.7-2.4 2.7-2.8l6.8-1.3c1.1-.2 2.2.7 2.2 1.8v7.6c0 1.2-1 2.1-2.1 2.1h-7.6c-1.1 0-2-.9-2-2v-5.4zm2.6 16.2c1.4 0 2.6 1.2 2.6 2.6 0 1.4-1.2 2.6-2.6 2.6s-2.6-1.2-2.6-2.6c0-1.5 1.2-2.6 2.6-2.6zm23.1 14.6c-.5-.6-1.2-1-2-1h-2.8l2.1 3.6H25.4l2.1-3.6h-2.8c-.8 0-1.5.4-2 1l-6.4 8.8h4.3c.7 0 1.3-.4 1.7-1l1.2-2h23.9l1.2 2c.4.6 1 1 1.7 1h4.3l-6.4-8.8z" style="fill:#f1e8ce"/></svg>