<?xml version="1.0" encoding="utf-8"?>
<!-- Generator: Adobe Illustrator 26.0.1, SVG Export Plug-In . SVG Version: 6.00 Build 0)  -->
<svg version="1.1" id="Layer_1" xmlns="http://www.w3.org/2000/svg" xmlns:xlink="http://www.w3.org/1999/xlink" x="0px" y="0px"
	 viewBox="0 0 71.3 71.3" style="enable-background:new 0 0 71.3 71.3;" xml:space="preserve">
<style type="text/css">
	.st0{fill:#699F67;}
	.st1{fill:#F1E8CE;}
</style>
<g>
	<g>
		<path class="st0" d="M60,71.2H11.3C5.1,71.2,0,66.1,0,59.9V11.4C0,5.2,5.1,0.1,11.3,0.1H60c6.3,0,11.3,5.1,11.3,11.3v48.4
			C71.3,66.1,66.2,71.2,60,71.2z"/>
	</g>
</g>
<g>
	<ellipse class="st0" cx="35.7" cy="35.7" rx="35.7" ry="35.7"/>
	<g>
		<path class="st1" d="M19.1,46.3c0.5,2,2.3,3.5,4.5,3.5h23.8c2.2,0,4-1.5,4.5-3.5c0.1-0.5,0.4-1,0.8-1.4c0.2-0.2,0.4-0.5,0.4-0.8
			V31.7c0-0.4-0.2-0.7-0.5-0.9C52.2,30.6,52,30.3,52,30v-9.2c0-6.9-3.7-12.1-16.5-12.1C22.6,8.7,19,13.8,19,20.8V30
			c0,0.3-0.2,0.6-0.5,0.7c-0.3,0.2-0.5,0.5-0.5,0.9V44c0,0.3,0.1,0.6,0.4,0.8C18.7,45.2,18.9,45.7,19.1,46.3z M45.8,42.3
			c-1.4,0-2.6-1.2-2.6-2.6c0-1.4,1.2-2.6,2.6-2.6c1.4,0,2.6,1.2,2.6,2.6C48.4,41.1,47.2,42.3,45.8,42.3z M36.7,18.7
			c0-1.2,1.1-2,2.2-1.8l6.8,1.3c1.9,0.4,2.7,1.1,2.7,2.8v5.6c0,1.1-0.9,2-2,2h-7.6c-1.2,0-2.1-1-2.1-2.1
			C36.7,26.5,36.7,18.7,36.7,18.7z M22.5,20.9c0-1.7,0.7-2.4,2.7-2.8l6.8-1.3c1.1-0.2,2.2,0.7,2.2,1.8v7.6c0,1.2-1,2.1-2.1,2.1h-7.6
			c-1.1,0-2-0.9-2-2C22.5,26.3,22.5,20.9,22.5,20.9z M25.1,37.1c1.4,0,2.6,1.2,2.6,2.6c0,1.4-1.2,2.6-2.6,2.6s-2.6-1.2-2.6-2.6
			C22.5,38.2,23.7,37.1,25.1,37.1z"/>
		<path class="st1" d="M48.2,51.7c-0.5-0.6-1.2-1-2-1h-2.8l2.1,3.6H25.4l2.1-3.6h-2.8c-0.8,0-1.5,0.4-2,1l-6.4,8.8h4.3
			c0.7,0,1.3-0.4,1.7-1l1.2-2h23.9l1.2,2c0.4,0.6,1,1,1.7,1h4.3L48.2,51.7z"/>
	</g>
</g>
</svg>
